<svg viewBox="0 0 115 105" fill="none" xmlns="http://www.w3.org/2000/svg">
<g clip-path="url(#clip0_942_58)">
<mask id="mask0_942_58" style="mask-type:luminance" maskUnits="userSpaceOnUse" x="0" y="0" width="115" height="105">
<path d="M115 0H0V105H115V0Z" fill="white"/>
</mask>
<g mask="url(#mask0_942_58)">
<path d="M17.7324 9.48181L3.33533 96.4102L35.2918 86.5234L105.239 55.0597L17.7324 9.48181Z" fill="white"/>
<path d="M0 104.997V104.999L115 56.2764L7.47045 93.5018L19.5915 12.4784L0 104.997Z" fill="#F49615"/>
<path d="M0 104.998L19.5915 12.4792L101.443 54.6314L14.8649 0L0 104.998Z" fill="#00963E"/>
<path d="M101.443 54.6314L7.47009 93.5026L115 56.2772L14.8646 0L101.443 54.6314Z" fill="#FFE500"/>
<mask id="mask1_942_58" style="mask-type:luminance" maskUnits="userSpaceOnUse" x="0" y="0" width="115" height="105">
<path d="M115 0H0V105H115V0Z" fill="white"/>
</mask>
<g mask="url(#mask1_942_58)">
<path d="M94.209 42.2985C93.0948 42.4169 92.2756 41.5887 92.3904 40.4603C92.5051 39.3302 93.5098 38.3201 94.6257 38.2018C95.7398 38.0836 96.5591 38.9011 96.4443 40.0313C96.3296 41.1613 95.3248 42.182 94.209 42.3004M94.5903 38.5568C93.6687 38.6539 92.8353 39.4909 92.7418 40.425C92.6463 41.3574 93.3262 42.0443 94.2461 41.9472C95.1677 41.8483 96.0011 41.0025 96.0965 40.0701C96.1918 39.1359 95.5121 38.4596 94.5903 38.5585M94.6097 41.2973L94.1454 40.5892L94.0678 41.3556L93.6016 41.405L93.8206 39.2436L94.518 39.1695C94.9452 39.1236 95.3319 39.2772 95.2826 39.7681C95.2472 40.1213 94.9983 40.3915 94.6592 40.5151L95.18 41.2373L94.608 41.2973H94.6097ZM94.4774 39.581L94.2354 39.6074L94.1737 40.2167L94.4156 40.1901C94.6097 40.169 94.7829 40.0736 94.8057 39.8476C94.8287 39.6215 94.6716 39.5615 94.4774 39.581Z" fill="black"/>
<path d="M50.7963 37.9113L33.9485 45.6775L36.5458 31.2612L50.7963 37.9113ZM92.1884 29.34L87.211 59.6824L78.9459 60.7613L80.0601 53.9099C78.125 58.4145 73.7938 61.8066 68.4033 62.5325C67.6706 62.6277 67.0031 62.6719 66.3569 62.6719C63.5037 62.6719 60.9894 61.8349 59.0861 60.251C56.9497 58.4728 55.7649 55.907 55.6589 52.8363C55.6007 51.1392 55.8708 49.5023 56.3988 47.9713L56.1992 47.9979C52.1047 48.5488 51.2907 49.8042 50.6162 53.8286L48.8047 64.7009L40.5432 65.7798L44.4259 41.8739L52.4931 40.8214L52.4489 41.0864C53.5243 40.4754 54.6736 40.0674 55.7914 39.9173C56.1497 39.8696 56.5012 39.8591 56.8154 39.8591L58.9095 39.8749L58.1308 44.5703C60.4208 41.2842 64.1234 38.925 68.5287 38.3317C69.2579 38.2363 69.9218 38.1921 70.5663 38.1921C73.3719 38.1921 75.8349 39.008 77.6906 40.5531C79.6947 42.2235 80.8581 44.6163 81.1036 47.4946L83.8775 30.4242L92.1884 29.3383V29.34ZM72.994 49.0397C72.9586 47.9996 72.5862 47.1555 71.9187 46.5993C71.336 46.1119 70.538 45.8559 69.6093 45.8559C69.3833 45.8559 69.1502 45.8718 68.9136 45.9036C65.9668 46.3008 63.7562 48.9231 63.8568 51.8773C63.8921 52.9121 64.2576 53.7279 64.9444 54.2984C65.5413 54.7963 66.3445 55.0576 67.2663 55.0576C67.4851 55.0576 67.7094 55.0418 67.9355 55.0135C70.7728 54.6303 73.0911 51.895 72.9923 49.0397M42.27 42.356L38.3802 65.997L30.3325 67.0812L32.2517 55.5927C31.6426 57.5651 30.7386 59.451 29.568 61.1145C25.4222 66.9964 19.7139 68.4815 14.6765 69.1613L2.11572 70.8018L7.4409 38.3351L16.5393 37.1468C17.8477 36.9755 19.0058 36.8924 20.0811 36.8924C24.2375 36.8924 27.5339 38.171 29.8788 40.696C31.8651 42.8293 33.0216 45.8418 33.1364 49.1774C33.1487 49.5694 33.1364 49.9632 33.1257 50.357L33.8355 46.1066L42.27 42.3542V42.356ZM24.1986 50.2881C24.1227 48.072 23.2434 46.4085 21.7867 45.7234C20.9763 45.3456 20.1976 45.1831 19.1877 45.1831C18.4285 45.1831 17.6039 45.2713 16.4352 45.425L15.0579 45.6051L12.5083 61.2663C13.0168 61.2027 14.2263 61.0438 14.2263 61.0438C16.9754 60.673 18.9565 60.1273 20.9357 58.4322C23.7785 55.9812 24.2799 52.649 24.1986 50.2881Z" fill="white"/>
<path d="M35.2927 43.9426L37.3109 32.7401L48.385 37.907L35.2927 43.9426Z" fill="#E51D38"/>
<path d="M29.1332 41.3855C25.5225 37.4989 20.2908 37.679 16.6694 38.1505L8.31797 39.2418L3.33533 69.6158L14.5383 68.152C19.3586 67.5021 24.8144 66.0895 28.7359 60.5271C31.0224 57.2815 32.2548 53.1582 32.1206 49.2116C32.0146 46.1179 30.9535 43.3385 29.1332 41.3855ZM21.592 59.2009C19.4309 61.0498 17.2203 61.6607 14.3564 62.0457L14.187 62.0686C13.2353 62.1923 12.2589 62.3211 11.2878 62.4289L14.1747 44.6929L16.3004 44.4157C18.7723 44.0925 20.4038 43.9582 22.2154 44.8042C24.0287 45.6553 25.1198 47.6418 25.2081 50.2517C25.2964 52.8351 24.7402 56.4851 21.5903 59.2028" fill="black"/>
<path d="M56.712 46.9064L57.7114 40.8814L56.9468 40.8761C56.6414 40.8743 56.2829 40.8778 55.9227 40.9255C54.196 41.1586 52.4196 42.0822 51.0425 43.38L51.2685 42.0045L45.3024 42.7832L41.7605 64.5983L47.9244 63.7931L49.6123 53.6625C50.3451 49.2832 51.4309 47.6163 56.0658 46.9911L56.7137 46.9064H56.712Z" fill="black"/>
<path d="M77.0397 41.3331C74.9703 39.6096 72.0164 38.8981 68.7217 39.3289L68.6616 39.336C61.5956 40.2878 56.4399 46.0779 56.6694 52.8004C56.7647 55.5745 57.8242 57.8807 59.7311 59.47C61.8534 61.2376 64.8638 61.9704 68.2044 61.5342L68.2643 61.5272C75.2616 60.5843 80.3662 54.8524 80.1384 48.1951C80.0395 45.3133 78.9677 42.9401 77.0378 41.3331M68.7516 44.9001L68.7782 44.8965C70.2701 44.7024 71.6138 45.029 72.5637 45.82C73.4607 46.567 73.9586 47.6672 74.0044 49.0056C74.1193 52.359 71.4107 55.5692 68.0649 56.0195C66.5924 56.2121 65.2522 55.8783 64.2916 55.0783C63.3858 54.3243 62.8844 53.2296 62.8385 51.9123C62.7202 48.4442 65.3175 45.3645 68.7516 44.9019" fill="black"/>
<path d="M84.7569 31.3334L80.1663 59.5797L86.3319 58.7745L90.9649 30.5229L84.7569 31.3334Z" fill="black"/>
<path d="M34.7458 46.813L31.5588 65.8911L37.5003 65.0911L40.9644 44.0459L34.7458 46.813Z" fill="black"/>
<path d="M29.1332 41.3855C25.5225 37.4989 20.2908 37.679 16.6694 38.1505L8.31797 39.2418L3.33533 69.6158L14.5383 68.152C19.3586 67.5021 24.8144 66.0895 28.7359 60.5271C31.0224 57.2815 32.2548 53.1582 32.1206 49.2116C32.0146 46.1179 30.9535 43.3385 29.1332 41.3855ZM21.592 59.2009C19.4309 61.0498 17.2203 61.6607 14.3564 62.0457L14.187 62.0686C13.2353 62.1923 12.2589 62.3211 11.2878 62.4289L14.1747 44.6929L16.3004 44.4157C18.7723 44.0925 20.4038 43.9582 22.2154 44.8042C24.0287 45.6553 25.1198 47.6418 25.2081 50.2517C25.2964 52.8351 24.7402 56.4851 21.5903 59.2028" fill="black"/>
</g>
</g>
</g>
<defs>
<clipPath id="clip0_942_58">
<rect width="115" height="105" fill="white"/>
</clipPath>
</defs>
</svg>
