<svg width="421" height="385" viewBox="0 0 421 385" fill="none" xmlns="http://www.w3.org/2000/svg">
<g clip-path="url(#clip0_956_105)">
<path d="M64.916 34.7628L12.2102 353.5L129.198 317.249L385.268 201.882L64.916 34.7628Z" fill="white"/>
<path d="M0 384.994V385L421 206.349L27.3483 342.843L71.7223 45.7568L0 384.994Z" fill="#E0E0E0"/>
<path d="M0 384.993L71.7223 45.7569L371.371 200.315L54.4187 0L0 384.993Z" fill="#969696"/>
<path d="M371.371 200.315L27.3484 342.843L421 206.349L54.4188 0L371.371 200.315Z" fill="#606060"/>
<mask id="mask0_956_105" style="mask-type:luminance" maskUnits="userSpaceOnUse" x="0" y="0" width="421" height="385">
<path d="M421 0H0V385H421V0Z" fill="white"/>
</mask>
<g mask="url(#mask0_956_105)">
<path d="M344.882 155.096C340.797 155.529 337.805 152.493 338.225 148.355C338.645 144.212 342.323 140.508 346.401 140.074C350.486 139.64 353.479 142.638 353.059 146.782C352.639 150.926 348.961 154.668 344.876 155.102M346.279 141.369C342.904 141.725 339.854 144.794 339.511 148.219C339.162 151.638 341.65 154.157 345.018 153.801C348.392 153.444 351.443 150.337 351.792 146.918C352.141 143.493 349.653 141.013 346.279 141.376M346.35 151.411L344.65 148.815L344.365 151.625L342.659 151.806L343.46 143.881L346.014 143.609C347.578 143.448 348.993 144.004 348.812 145.804C348.683 147.099 347.772 148.09 346.531 148.543L348.437 151.191L346.343 151.411H346.35ZM345.858 145.118L344.973 145.215L344.747 147.449L345.632 147.352C346.343 147.274 346.977 146.924 347.061 146.096C347.145 145.267 346.569 145.047 345.858 145.118Z" fill="black"/>
<path d="M185.957 139.012L124.279 167.488L133.788 114.628L185.957 139.012ZM337.488 107.584L319.266 218.839L289.009 222.795L293.088 197.673C286.004 214.19 270.148 226.622 250.414 229.289C247.731 229.639 245.288 229.801 242.922 229.801C232.477 229.801 223.272 226.732 216.305 220.924C208.483 214.404 204.146 204.996 203.758 193.737C203.545 187.514 204.534 181.512 206.467 175.899L205.736 175.996C190.747 178.016 187.767 182.613 185.298 197.375L178.666 237.24L148.422 241.196L162.636 153.542L192.169 149.683L192.007 150.654C195.944 148.414 200.151 146.918 204.243 146.368C205.555 146.193 206.842 146.154 207.992 146.154L215.658 146.212L212.808 163.428C221.191 151.379 234.746 142.729 250.873 140.553C253.542 140.204 255.973 140.042 258.332 140.042C268.603 140.042 277.62 143.033 284.414 148.698C291.75 154.824 296.01 163.597 296.908 174.151L307.063 111.559L337.488 107.578V107.584ZM267.213 179.816C267.084 176.002 265.72 172.907 263.277 170.868C261.144 169.081 258.222 168.142 254.822 168.142C253.995 168.142 253.142 168.2 252.276 168.317C241.487 169.774 233.395 179.389 233.763 190.221C233.892 194.015 235.23 197 237.745 199.098C239.93 200.924 242.871 201.882 246.245 201.882C247.046 201.882 247.867 201.824 248.695 201.72C259.082 200.315 267.569 190.286 267.207 179.816M154.743 155.303L140.504 241.986L111.042 245.962L118.068 203.837C115.838 211.069 112.528 217.984 108.243 224.084C93.0658 245.651 72.1683 251.096 53.7271 253.589L7.74365 259.604L27.2385 140.56L60.5529 136.202C65.3425 135.574 69.5828 135.27 73.5192 135.27C88.735 135.27 100.803 139.958 109.387 149.216C116.659 157.031 120.892 168.084 121.313 180.315C121.358 181.752 121.313 183.196 121.274 184.64L123.872 169.055L154.75 155.296L154.743 155.303ZM88.5799 184.387C88.3019 176.261 85.083 170.162 79.7503 167.65C76.777 166.264 73.9329 165.669 70.2356 165.669C67.4562 165.669 64.4376 165.992 60.1586 166.556L55.1168 167.216L45.7831 224.641C47.6447 224.407 52.0724 223.825 52.0724 223.825C62.1365 222.465 69.3824 220.464 76.6348 214.249C87.0415 205.262 88.8772 193.044 88.5799 184.387Z" fill="white"/>
<path d="M129.198 161.123L136.587 120.048L177.128 138.993L129.198 161.123Z" fill="#010000"/>
<path d="M106.653 151.755C93.4343 137.504 74.282 138.164 61.0248 139.893L30.451 143.894L12.2102 255.266L53.223 249.898C70.8692 247.516 90.8423 242.336 105.198 221.941C113.569 210.04 118.081 194.922 117.589 180.451C117.202 169.107 113.317 158.916 106.653 151.755ZM79.0459 217.078C71.1342 223.857 63.0415 226.097 52.5572 227.509L51.9367 227.593C48.4527 228.046 44.8782 228.519 41.3231 228.914L51.8915 163.882L59.6739 162.865C68.7232 161.68 74.6957 161.188 81.3276 164.283C87.9659 167.404 91.9605 174.688 92.2837 184.258C92.6069 193.73 90.5708 207.113 79.0394 217.078" fill="black"/>
<path d="M207.617 171.995L211.269 149.903L208.47 149.883C207.352 149.877 206.04 149.89 204.721 150.065C198.4 150.919 191.897 154.306 186.855 159.064L187.683 154.021L165.842 156.876L152.875 236.865L175.44 233.912L181.62 196.767C184.302 180.709 188.277 174.604 205.245 172.305L207.617 171.995Z" fill="black"/>
<path d="M282.029 151.56C274.453 145.241 263.639 142.632 251.578 144.211L251.358 144.244C225.49 147.734 206.615 168.964 207.456 193.614C207.805 203.785 211.683 212.241 218.664 218.069C226.433 224.55 237.454 227.237 249.684 225.638L249.903 225.612C275.519 222.154 294.206 201.137 293.372 176.728C293.01 166.161 289.087 157.459 282.022 151.567M251.7 164.639L251.797 164.626C257.259 163.914 262.178 165.112 265.656 168.013C268.939 170.745 270.762 174.785 270.93 179.686C271.35 191.982 261.435 203.753 249.186 205.404C243.795 206.11 238.889 204.886 235.373 201.953C232.057 199.188 230.221 195.174 230.053 190.344C229.62 177.628 239.128 166.336 251.7 164.639Z" fill="black"/>
<path d="M310.282 114.894L293.469 218.464L316.047 215.511L333.008 111.922L310.282 114.894Z" fill="black"/>
<path d="M127.194 171.651L115.527 241.604L137.278 238.671L149.96 161.505L127.194 171.651Z" fill="black"/>
<path d="M106.653 151.755C93.4343 137.504 74.282 138.164 61.0248 139.893L30.451 143.894L12.2102 255.266L53.223 249.898C70.8692 247.516 90.8423 242.336 105.198 221.941C113.569 210.04 118.081 194.922 117.589 180.451C117.202 169.107 113.317 158.916 106.653 151.755ZM79.0459 217.078C71.1342 223.857 63.0415 226.097 52.5572 227.509L51.9367 227.593C48.4527 228.046 44.8782 228.519 41.3231 228.914L51.8915 163.882L59.6739 162.865C68.7232 161.68 74.6957 161.188 81.3276 164.283C87.9659 167.404 91.9605 174.688 92.2837 184.258C92.6069 193.73 90.5708 207.113 79.0394 217.078" fill="black"/>
</g>
</g>
<defs>
<clipPath id="clip0_956_105">
<rect width="421" height="385" fill="white"/>
</clipPath>
</defs>
</svg>
