<svg width="500" height="500" viewBox="0 0 500 500" fill="none" xmlns="http://www.w3.org/2000/svg">
<path d="M414.337 221.394C410.262 221.827 407.276 218.798 407.695 214.671C408.114 210.538 411.783 206.844 415.852 206.412C419.928 205.979 422.913 208.969 422.494 213.102C422.075 217.235 418.406 220.968 414.331 221.401M415.73 207.703C412.364 208.059 409.32 211.12 408.978 214.536C408.63 217.946 411.113 220.458 414.472 220.103C417.838 219.747 420.882 216.648 421.23 213.238C421.579 209.822 419.096 207.348 415.73 207.71M415.801 217.72L414.105 215.13L413.821 217.933L412.119 218.114L412.918 210.209L415.465 209.938C417.026 209.776 418.438 210.332 418.258 212.127C418.129 213.419 417.219 214.407 415.981 214.859L417.884 217.5L415.794 217.72H415.801ZM415.311 211.442L414.427 211.539L414.202 213.767L415.085 213.67C415.794 213.593 416.426 213.244 416.51 212.418C416.594 211.591 416.02 211.371 415.311 211.442Z" fill="black"/>
<path d="M255.79 205.353L194.259 233.755L203.744 181.033L255.79 205.353ZM406.96 174.006L388.782 284.973L358.597 288.919L362.666 263.862C355.599 280.336 339.781 292.735 320.094 295.396C317.417 295.745 314.98 295.906 312.62 295.906C302.199 295.906 293.016 292.845 286.065 287.052C278.262 280.549 273.936 271.166 273.549 259.935C273.336 253.729 274.322 247.743 276.251 242.144L275.522 242.241C260.568 244.256 257.595 248.841 255.132 263.565L248.516 303.326L218.344 307.272L232.524 219.845L261.987 215.996L261.825 216.964C265.752 214.73 269.95 213.238 274.032 212.689C275.341 212.515 276.625 212.476 277.772 212.476L285.42 212.534L282.576 229.706C290.94 217.688 304.462 209.06 320.551 206.89C323.215 206.541 325.639 206.38 327.993 206.38C338.239 206.38 347.235 209.364 354.012 215.014C361.331 221.123 365.581 229.874 366.477 240.4L376.608 177.972L406.96 174V174.006ZM336.853 246.051C336.724 242.247 335.363 239.16 332.926 237.126C330.798 235.344 327.883 234.407 324.491 234.407C323.666 234.407 322.815 234.465 321.951 234.582C311.188 236.035 303.115 245.625 303.482 256.429C303.611 260.213 304.946 263.19 307.455 265.283C309.634 267.104 312.568 268.059 315.934 268.059C316.734 268.059 317.553 268.001 318.378 267.898C328.741 266.497 337.208 256.493 336.847 246.051M224.65 221.601L210.444 308.06L181.052 312.025L188.062 270.01C185.837 277.223 182.535 284.12 178.26 290.204C163.119 311.715 142.272 317.146 123.874 319.632L78 325.632L97.4485 206.897L130.684 202.55C135.462 201.924 139.692 201.621 143.619 201.621C158.799 201.621 170.838 206.296 179.401 215.531C186.656 223.326 190.88 234.349 191.299 246.548C191.344 247.982 191.299 249.422 191.26 250.862L193.852 235.318L224.657 221.595L224.65 221.601ZM158.644 250.61C158.367 242.506 155.156 236.422 149.836 233.917C146.869 232.535 144.032 231.94 140.344 231.94C137.571 231.94 134.559 232.263 130.29 232.825L125.261 233.484L115.949 290.759C117.806 290.527 122.223 289.945 122.223 289.945C132.264 288.589 139.492 286.594 146.728 280.394C157.11 271.43 158.941 259.244 158.644 250.61Z" fill="white"/>
<path d="M199.166 227.407L206.536 186.438L246.981 205.334L199.166 227.407Z" fill="#E51D38"/>
<path d="M176.673 218.062C163.486 203.848 144.379 204.507 131.154 206.231L100.653 210.222L82.4551 321.304L123.37 315.95C140.975 313.574 160.9 308.407 175.222 288.065C183.573 276.195 188.074 261.117 187.584 246.683C187.197 235.369 183.321 225.204 176.673 218.062ZM149.132 283.215C141.239 289.977 133.166 292.211 122.706 293.619L122.087 293.703C118.612 294.155 115.046 294.626 111.499 295.02L122.042 230.157L129.806 229.144C138.834 227.962 144.792 227.471 151.408 230.558C158.031 233.671 162.016 240.936 162.338 250.481C162.661 259.928 160.63 273.277 149.126 283.215" fill="black"/>
<path d="M277.399 238.25L281.042 216.215L278.25 216.196C277.134 216.19 275.825 216.202 274.51 216.377C268.203 217.229 261.716 220.607 256.686 225.353L257.512 220.323L235.722 223.171L222.787 302.952L245.298 300.007L251.463 262.958C254.139 246.942 258.105 240.852 275.032 238.56L277.399 238.25Z" fill="black"/>
<path d="M351.632 217.868C344.075 211.566 333.286 208.963 321.254 210.539L321.034 210.571C295.228 214.052 276.398 235.227 277.236 259.813C277.585 269.958 281.454 278.392 288.418 284.204C296.169 290.669 307.164 293.349 319.364 291.753L319.583 291.728C345.139 288.279 363.781 267.317 362.949 242.97C362.588 232.431 358.674 223.752 351.626 217.875M321.376 230.913L321.473 230.901C326.922 230.19 331.829 231.385 335.298 234.278C338.574 237.003 340.392 241.033 340.56 245.922C340.979 258.185 331.087 269.926 318.868 271.572C313.49 272.276 308.595 271.056 305.087 268.13C301.779 265.373 299.948 261.369 299.78 256.551C299.348 243.868 308.834 232.605 321.376 230.913Z" fill="black"/>
<path d="M379.818 181.297L363.045 284.598L385.57 281.653L402.491 178.333L379.818 181.297Z" fill="black"/>
<path d="M197.166 237.907L185.527 307.679L207.226 304.753L219.878 227.788L197.166 237.907Z" fill="black"/>
<path d="M176.673 218.062C163.486 203.848 144.379 204.507 131.154 206.231L100.653 210.222L82.4551 321.304L123.37 315.95C140.975 313.574 160.9 308.407 175.222 288.065C183.573 276.195 188.074 261.117 187.584 246.683C187.197 235.369 183.321 225.204 176.673 218.062ZM149.132 283.215C141.239 289.977 133.166 292.211 122.706 293.619L122.087 293.703C118.612 294.155 115.046 294.626 111.499 295.02L122.042 230.157L129.806 229.144C138.834 227.962 144.792 227.471 151.408 230.558C158.031 233.671 162.016 240.936 162.338 250.481C162.661 259.928 160.63 273.277 149.126 283.215" fill="black"/>
</svg>
