<svg width="120" height="45" viewBox="0 0 120 45" fill="none" xmlns="http://www.w3.org/2000/svg">
<g clip-path="url(#clip0_2188_252)">
<path d="M12.6945 18.9869C12.1403 19.4779 11.3446 19.6451 10.8453 19.7044C9.83011 19.8285 8.78201 19.4994 8.11255 18.701C7.56381 18.0536 7.27846 17.212 6.7407 16.5377C5.89015 15.4749 4.53476 14.779 3.13547 15.0218C0.369811 15.5127 -0.881319 18.6848 0.682594 20.8805C2.91597 24.0203 7.93695 23.4754 10.5105 21.3013C11.3172 20.6323 12.0635 19.8771 12.6945 18.9869Z" fill="white"/>
<path d="M106.315 18.9868C106.869 19.4778 107.66 19.645 108.159 19.7044C109.174 19.8284 110.222 19.4993 110.892 18.7063C111.44 18.0535 111.726 17.2173 112.264 16.543C113.114 15.4802 114.469 14.7843 115.869 15.0325C118.629 15.5234 119.886 18.6901 118.322 20.8912C116.088 24.031 111.067 23.4861 108.494 21.312C107.693 20.6323 106.941 19.877 106.315 18.9868Z" fill="white"/>
<path d="M97.1129 2.24219C97.0416 2.24219 90.4512 2.24219 90.3854 2.24219C89.661 2.26377 89.0629 2.9221 89.03 3.59661C88.9916 4.3143 89.6281 5.02659 90.3854 5.06436C90.4567 5.06436 97.0471 5.06436 97.1129 5.06436C97.8373 5.04277 98.4354 4.38445 98.4683 3.70454C98.5012 2.98685 97.8647 2.27456 97.1129 2.24219Z" fill="white"/>
<path d="M55.1122 16.3274C55.0189 15.9551 54.9695 15.5829 54.9421 15.2107C54.9366 14.6712 54.9366 13.9159 54.9366 13.2254C55.0079 10.8247 55.4634 6.60599 52.1545 6.60599C49.9211 6.60599 48.5931 8.45641 48.22 9.06063C48.1651 7.37745 46.8152 6.15283 44.7465 6.15283C43.4295 6.15283 42.6448 7.18324 42.6448 7.18324C42.6448 7.18324 43.9288 7.62022 43.9288 9.31958C43.9453 10.5334 43.9288 16.4569 43.9288 16.4838C43.9782 17.5358 44.7245 18.5177 46.0579 18.5177C47.3914 18.5177 48.22 17.5088 48.22 16.4838V11.2293C48.4066 10.3716 48.8949 9.49221 49.6357 9.49221C50.596 9.49221 50.6509 10.5442 50.6564 10.5442L50.6509 15.6261C50.6564 15.7933 50.6783 15.9498 50.7058 16.1062C50.7552 16.3705 50.832 16.6187 50.9527 16.8453C51.463 17.8703 52.5989 18.5339 54.1244 18.5339C55.4414 18.5339 56.2261 17.5035 56.2261 17.5035C56.2261 17.5035 55.4579 17.2391 55.1122 16.3274Z" fill="white"/>
<path d="M86.9227 16.3275C86.8294 15.9552 86.78 15.583 86.7526 15.2107L86.7581 2.6301C86.7581 1.40549 85.7484 0.412842 84.5083 0.412842C83.2626 0.412842 82.2529 1.40549 82.2529 2.6301L82.2584 13.7757C82.2694 14.7792 82.1706 15.8042 82.648 16.7267C83.1584 17.7517 84.4205 18.5393 85.9405 18.5393C87.2629 18.5393 88.0422 17.5089 88.0422 17.5089C88.0422 17.5089 87.2684 17.2392 86.9227 16.3275Z" fill="white"/>
<path d="M36.6032 15.9823C36.5977 15.9823 36.5922 15.9823 36.5922 15.9823C36.5867 15.9823 36.5812 15.9823 36.5812 15.9823C35.4234 15.9607 34.8472 14.6552 34.8472 12.5188C34.8472 10.3879 35.5825 9.077 36.5812 9.05543C36.5867 9.05543 36.5867 9.05543 36.5922 9.05543C36.5977 9.05543 36.6032 9.05543 36.6032 9.05543C37.6019 9.077 38.3372 10.3879 38.3372 12.5188C38.3372 14.6552 37.761 15.9607 36.6032 15.9823ZM36.5593 6.49829C33.179 6.49829 30.4353 9.19569 30.4353 12.5188C30.4353 15.842 33.179 18.5394 36.5593 18.5394C39.9395 18.5394 42.6832 15.842 42.6832 12.5188C42.6832 9.1903 39.9395 6.49829 36.5593 6.49829Z" fill="white"/>
<path d="M62.169 15.5938C62.1635 15.5938 62.158 15.5938 62.158 15.5938C62.1525 15.5938 62.1525 15.5938 62.147 15.5938C60.9892 15.5776 60.413 14.4393 60.413 12.5781C60.413 10.7169 61.1483 9.584 62.147 9.56242C62.1525 9.56242 62.1525 9.56242 62.158 9.56242C62.1635 9.56242 62.1635 9.56242 62.169 9.56242C63.1732 9.584 63.903 10.7223 63.903 12.5781C63.9085 14.4393 63.3268 15.5776 62.169 15.5938ZM68.8855 16.3275C68.7923 15.9552 68.7429 15.583 68.7154 15.2107L68.7209 2.6301C68.7209 1.40549 67.7112 0.412842 66.4656 0.412842C65.22 0.412842 64.2103 1.40549 64.2103 2.6301L64.2048 8.59136C63.6615 7.84688 62.4708 6.59528 60.5886 6.59528C55.414 6.59528 55.0847 15.6585 58.6351 17.8974C59.6338 18.5285 61.1483 18.6904 62.2897 18.3991C63.0799 18.1941 64.32 17.4334 64.5231 16.5271C64.5505 16.5918 64.5834 16.6619 64.6163 16.7267C65.1267 17.7517 66.3888 18.5393 67.9088 18.5393C69.2313 18.5393 70.0105 17.5089 70.0105 17.5089C70.0105 17.5089 69.2367 17.2392 68.8855 16.3275Z" fill="white"/>
<path d="M74.0327 11.8336C74.1644 10.8842 74.3948 9.68655 75.2618 9.13089C75.9862 8.67233 76.9959 9.19563 77.0068 10.0804C77.0233 11.019 76.4087 11.6556 75.5472 11.8336C75.4594 11.8552 74.0217 11.9254 74.0327 11.8336ZM80.6175 14.8116C80.6175 14.8116 79.9591 15.7017 77.3909 15.7017C74.8283 15.7017 74.2741 13.7434 74.2741 13.7434C78.011 13.7434 81.1443 13.4952 81.1443 10.5227C81.1443 7.55021 77.7257 6.56836 75.6953 6.56836C72.348 6.56836 69.9006 9.19563 69.9006 12.659C69.9006 16.5595 73.0833 18.5394 75.7283 18.5394C80.3926 18.5394 80.6175 14.8116 80.6175 14.8116Z" fill="white"/>
<path d="M92.0644 11.8336C92.1961 10.8842 92.4266 9.68655 93.2936 9.13089C94.0179 8.67233 95.0276 9.19563 95.0386 10.0804C95.055 11.019 94.4404 11.6556 93.5789 11.8336C93.4911 11.8552 92.0534 11.9254 92.0644 11.8336ZM98.6493 14.8116C98.6493 14.8116 97.9853 15.7017 95.4227 15.7017C92.8601 15.7017 92.3058 13.7434 92.3058 13.7434C96.0428 13.7434 99.1761 13.4952 99.1761 10.5227C99.1761 7.55021 95.7574 6.56836 93.7271 6.56836C90.3798 6.56836 87.9324 9.19563 87.9324 12.659C87.9324 16.5595 91.1151 18.5394 93.76 18.5394C98.4243 18.5394 98.6493 14.8116 98.6493 14.8116Z" fill="white"/>
<path d="M107.106 15.1351H104.537C104.724 15.1351 106.623 13.5599 107.254 13.0366C108.905 11.6609 111.869 9.67564 111.007 7.10231L111.013 7.1185C110.853 6.50349 110.376 6.15283 110.376 6.15283C110.376 6.15283 110.195 6.65455 109.586 6.87573C109.339 6.93508 109.087 6.97823 108.84 6.99442C108.637 6.99981 101.662 6.99442 101.662 6.99442C100.718 6.99442 99.928 7.7389 99.9171 8.61825C99.9061 9.503 100.652 10.2151 101.607 10.2259L105.673 10.2529C103.786 11.2886 101.536 12.5133 100.389 14.3799C99.736 15.4534 99.0391 17.1042 99.3025 18.3774C100.208 17.5898 102.578 16.8291 104.384 17.1959C105.059 17.3362 105.778 17.6761 106.365 18.0321C109.75 20.1145 111.786 16.0415 110.168 14.245C110.162 14.2504 109.24 15.1351 107.106 15.1351Z" fill="white"/>
<path d="M30.7645 17.6655C28.6848 15.4267 28.0373 11.7043 27.9111 9.22811C27.8013 7.09177 27.9166 3.38554 29.6341 2.31198C29.058 1.60526 27.9275 1.31934 27.0715 1.31934C25.1399 1.31934 24.2071 2.58711 23.5486 3.49344C23.3291 3.79555 20.0805 8.19771 20.0805 8.19771C20.0805 8.19771 17.3478 4.04371 17.0131 3.54199C16.5467 2.85146 15.6796 1.58907 14.1541 1.36789C13.4957 1.27618 11.7891 1.18986 10.8617 2.44145C12.464 3.69844 12.4256 6.90835 12.0744 9.09864C11.0318 15.6695 8.18384 16.2791 8.18384 16.2791C9.638 20.1472 13.3914 18.6204 14.4505 15.5346C15.1364 13.5277 15.5809 10.9922 15.6851 8.88824L19.8062 15.0976C19.8062 15.0976 24.4705 8.90443 24.4705 8.90982C23.7022 19.8612 27.527 22.9632 30.8743 22.9632C34.2216 22.9632 35.363 19.9529 35.363 19.9529C33.5412 19.845 31.9553 18.9495 30.7645 17.6655Z" fill="white"/>
<path d="M41.2126 21.2315C41.251 21.3933 41.273 21.5498 41.284 21.7116C41.284 21.7602 41.2785 27.4409 41.284 27.5057C41.2949 27.9804 41.7449 28.3742 42.2059 28.3958C42.6997 28.4228 43.1826 28.002 43.21 27.5057C43.2155 27.4409 43.21 22.3266 43.21 22.3266C43.2046 21.8951 43.2485 21.4581 43.0399 21.0643C42.8204 20.6273 42.2827 20.2874 41.6297 20.2874C41.0645 20.2874 40.7297 20.7298 40.7297 20.7298C40.7297 20.7298 41.0645 20.8377 41.2126 21.2315Z" fill="white"/>
<path d="M102.288 27.4517C102.249 27.2899 102.227 27.1334 102.216 26.9716C102.216 26.923 102.222 21.2423 102.216 21.1776C102.205 20.7028 101.755 20.309 101.289 20.282C100.795 20.2551 100.312 20.6759 100.285 21.1776C100.285 21.2423 100.285 26.3566 100.285 26.3566C100.29 26.7882 100.246 27.2252 100.455 27.619C100.674 28.056 101.212 28.3958 101.865 28.3958C102.43 28.3958 102.765 27.9535 102.765 27.9535C102.765 27.9535 102.436 27.8402 102.288 27.4517Z" fill="white"/>
<path d="M67.4261 23.222C66.4219 23.222 65.8292 24.0528 65.6646 24.3225L65.6591 24.3279C65.6591 24.0528 65.6591 23.837 65.6591 23.8262C65.6427 23.3514 65.1982 22.99 64.7372 22.9738C64.2489 22.9468 63.7605 23.3299 63.7385 23.8262C63.7385 23.8909 63.7385 27.4515 63.7385 27.5C63.755 27.9748 64.205 28.3686 64.6604 28.3902C65.1543 28.4118 65.6372 27.9964 65.6591 27.5C65.6591 27.4623 65.6646 26.3024 65.6591 25.299L65.6701 25.2936C65.7524 24.9105 65.9719 24.5167 66.3066 24.5167C66.7401 24.5167 66.7621 24.9861 66.7621 24.9861L66.7566 27.4947C66.7731 27.9694 67.223 28.3632 67.684 28.3848C68.1724 28.4064 68.6607 27.991 68.6827 27.4947L68.6772 26.1837C68.6772 24.835 68.8199 23.2166 67.4261 23.222Z" fill="white"/>
<path d="M92.0479 23.222C91.0437 23.222 90.4511 24.0528 90.2864 24.3225L90.2809 24.3279C90.2809 24.0528 90.2809 23.837 90.2809 23.8262C90.2645 23.3514 89.82 22.99 89.3591 22.9738C88.8707 22.9468 88.3823 23.3299 88.3604 23.8262C88.3604 23.8909 88.3604 27.4515 88.3604 27.5C88.3768 27.9748 88.8268 28.3686 89.2877 28.3902C89.7761 28.4118 90.2645 27.9964 90.2864 27.5C90.2864 27.4623 90.2864 26.3024 90.2864 25.299L90.2919 25.2936C90.3742 24.9105 90.5937 24.5167 90.9285 24.5167C91.3565 24.5167 91.3839 24.9861 91.3839 24.9861L91.3784 27.4947C91.3949 27.9694 91.8394 28.3632 92.3058 28.3848C92.7942 28.4064 93.2826 27.991 93.3045 27.4947L93.299 26.1837C93.299 24.835 93.4472 23.2166 92.0479 23.222Z" fill="white"/>
<path d="M47.8688 23.222C46.8646 23.222 46.272 24.0528 46.1073 24.3225L46.1019 24.3279C46.1019 24.0528 46.1019 23.837 46.1019 23.8262C46.0854 23.3514 45.6409 22.99 45.1745 22.9738C44.6861 22.9468 44.1977 23.3299 44.1758 23.8262C44.1758 23.8909 44.1758 27.4515 44.1758 27.5C44.1922 27.9748 44.6422 28.3686 45.1032 28.3902C45.5915 28.4118 46.0799 27.9964 46.1019 27.5C46.1019 27.4623 46.1019 26.3024 46.1019 25.299L46.1128 25.2936C46.1951 24.9105 46.4146 24.5167 46.7494 24.5167C47.1829 24.5167 47.2048 24.9861 47.2048 24.9861L47.1939 27.5C47.2103 27.9748 47.6548 28.3686 48.1157 28.3902C48.6041 28.4118 49.0925 27.9964 49.1199 27.5L49.1144 26.1891C49.1199 24.835 49.2626 23.2166 47.8688 23.222Z" fill="white"/>
<path d="M85.0844 27.2357H85.0789H85.0734C84.5521 27.2249 84.2942 26.6423 84.2942 25.6874C84.2942 24.7325 84.6234 24.1445 85.0734 24.1337H85.0789H85.0844C85.5343 24.1445 85.8636 24.7325 85.8636 25.6874C85.8636 26.6423 85.6057 27.2249 85.0844 27.2357ZM85.0679 22.9846C83.5534 22.9846 82.3242 24.193 82.3242 25.682C82.3242 27.1709 83.5534 28.3794 85.0679 28.3794C86.5824 28.3794 87.8116 27.1709 87.8116 25.682C87.8116 24.193 86.5824 22.9846 85.0679 22.9846Z" fill="white"/>
<path d="M71.8763 27.0253H71.8708H71.8653C71.3495 27.0199 71.0861 26.5074 71.0861 25.6712C71.0861 24.8404 71.4153 24.3279 71.8653 24.3171C71.8708 24.3171 71.8708 24.3171 71.8708 24.3171H71.8763C72.3262 24.3279 72.6555 24.835 72.6555 25.6712C72.6555 26.5074 72.3976 27.0199 71.8763 27.0253ZM74.823 23.7614C74.8065 23.2651 74.3291 22.8497 73.8462 22.8281C73.3304 22.8012 72.8201 23.2435 72.7981 23.7614C72.7981 23.7992 72.7927 23.8747 72.7927 23.8909C72.5512 23.5564 72.0134 22.9954 71.1739 22.9954C68.8527 22.9954 68.71 27.0577 70.3014 28.0611C70.7513 28.3416 71.4263 28.4172 71.9366 28.2877C72.2275 28.2121 72.65 27.9694 72.8475 27.6619C72.9683 28.0611 73.3688 28.3632 73.7804 28.3848C74.2962 28.4118 74.8011 27.9694 74.8285 27.4515C74.823 27.376 74.823 23.8046 74.823 23.7614Z" fill="white"/>
<path d="M96.4819 27.0253H96.4764H96.4709C95.9496 27.0199 95.6917 26.5074 95.6917 25.6712C95.6917 24.8404 96.0209 24.3279 96.4709 24.3171C96.4764 24.3171 96.4764 24.3171 96.4764 24.3171H96.4819C96.9318 24.3279 97.2611 24.835 97.2611 25.6712C97.2611 26.5074 97.0032 27.0199 96.4819 27.0253ZM99.4231 23.7614C99.4066 23.2651 98.9292 22.8497 98.4463 22.8281C97.9305 22.8012 97.4257 23.2435 97.3983 23.7614C97.3983 23.7992 97.3928 23.8747 97.3928 23.8909C97.1513 23.5564 96.6135 22.9954 95.774 22.9954C93.4528 22.9954 93.3101 27.0577 94.9015 28.0611C95.3514 28.3416 96.0264 28.4172 96.5367 28.2877C96.8276 28.2121 97.2556 27.9694 97.4476 27.6619C97.5629 28.0611 97.9689 28.3632 98.3805 28.3848C98.8908 28.4118 99.4012 27.9694 99.4286 27.4515C99.4286 27.376 99.4231 23.8046 99.4231 23.7614Z" fill="white"/>
<path d="M81.7207 24.2685C81.6987 23.7992 81.3201 23.4269 80.8482 23.3892C80.8207 23.3838 80.7933 23.3784 80.7658 23.3784C80.3378 23.3784 79.8 23.7452 79.8 24.2038V25.9517C79.8055 26.4966 79.8 27.4784 79.8 27.4892C79.822 27.9586 80.2006 28.3308 80.6725 28.3686C80.7 28.374 80.7274 28.374 80.7549 28.374C81.1829 28.374 81.7261 28.0071 81.7261 27.5486V26.0866C81.7097 25.5525 81.7207 24.2793 81.7207 24.2685Z" fill="white"/>
<path d="M81.7097 21.9057C81.7097 22.4237 81.2817 22.8446 80.7549 22.8446C80.2281 22.8446 79.8 22.4237 79.8 21.9057C79.8 21.3877 80.2281 20.9668 80.7549 20.9668C81.2817 20.9668 81.7097 21.3877 81.7097 21.9057Z" fill="white"/>
<path d="M62.1965 23.1573C61.6258 23.1789 61.3405 23.5997 60.9509 24.1284C60.9454 24.1338 60.9509 23.8856 60.9509 23.8749C60.9344 23.4001 60.4844 23.0063 60.029 22.9793C59.5406 22.9523 59.0522 23.3731 59.0303 23.8749V25.2343V27.511C59.0467 27.9857 59.4912 28.3795 59.9522 28.4011C60.4405 28.4281 60.9179 28.0127 60.9509 27.5217H60.9564V25.2182C60.9838 24.8783 61.1374 24.4575 61.4118 24.4629C61.8014 24.4683 61.4008 25.3962 62.2953 25.3962C63.5793 25.3962 63.7165 23.098 62.1965 23.1573Z" fill="white"/>
<path d="M55.3153 25.3746C55.3757 24.9484 55.4799 24.4143 55.8695 24.1662C56.1933 23.9558 56.6488 24.1932 56.6542 24.5924C56.6597 25.0132 56.3854 25.2991 56.0012 25.38C55.9573 25.38 55.3098 25.4178 55.3153 25.3746ZM58.2675 26.7071C58.2675 26.7071 57.9712 27.1064 56.8189 27.1064C55.6665 27.1064 55.4251 26.227 55.4251 26.227C57.0987 26.227 58.509 26.1137 58.509 24.7812C58.509 23.4487 56.9725 23.0063 56.0671 23.0063C54.5635 23.0063 53.4661 24.1824 53.4661 25.7361C53.4661 27.484 54.8928 28.3741 56.0836 28.3741C58.1688 28.3795 58.2675 26.7071 58.2675 26.7071Z" fill="white"/>
<path d="M53.3507 27.3815C53.3507 27.3815 52.8514 28.3795 51.924 28.3795C51.1613 28.3795 50.2229 27.716 50.1845 26.7611C50.1845 26.7503 50.179 25.3746 50.1735 24.2201H49.9156C49.7839 24.2201 49.5425 24.1392 49.5425 23.7939C49.5425 23.4487 49.8114 23.3731 49.9431 23.3731H50.1735C50.1735 22.9685 50.1735 22.6934 50.1735 22.6772C50.1955 22.1809 50.6839 21.7601 51.1722 21.7871C51.6332 21.8087 52.0886 22.2025 52.1051 22.6772V22.6826V23.3731H52.9172C53.0325 23.3731 53.2904 23.4433 53.2904 23.7993C53.2904 24.15 53.027 24.2201 52.8898 24.2201H52.1051V26.3349C52.1051 27.0254 52.7032 27.3815 53.3507 27.3815Z" fill="white"/>
<path d="M79.1195 27.3815C79.1195 27.3815 78.6202 28.3795 77.6928 28.3795C76.9301 28.3795 75.9917 27.716 75.9533 26.7611C75.9533 26.7503 75.9478 25.3746 75.9423 24.2201H75.6844C75.5472 24.2201 75.3113 24.1392 75.3113 23.7939C75.3113 23.4487 75.5802 23.3731 75.7119 23.3731H75.9423C75.9423 22.9685 75.9423 22.6934 75.9423 22.6772C75.9643 22.1809 76.4527 21.7601 76.941 21.7871C77.402 21.8087 77.8574 22.2025 77.8739 22.6772V22.6826V23.3731H78.6915C78.8068 23.3731 79.0647 23.4433 79.0647 23.7993C79.0647 24.15 78.8013 24.2201 78.6641 24.2201H77.8794V26.3349C77.8739 27.0254 78.4775 27.3815 79.1195 27.3815Z" fill="white"/>
<path d="M5.20426 42.0015C5.20426 42.0716 5.25365 42.1202 5.25365 42.1849C5.25365 42.255 5.21524 42.3198 5.17134 42.3737C5.11098 42.4493 5.03415 42.5194 4.99574 42.5949C4.85856 42.8647 4.67747 43.1128 4.447 43.3232C4.32628 43.4365 4.18909 43.5012 4.04093 43.5822C3.85985 43.6847 3.68974 43.8087 3.50865 43.9112C3.32757 44.0084 3.11356 44.0785 2.89955 44.0785C2.74042 44.0785 2.58128 44.0569 2.43312 44.0569C2.29045 44.0569 2.14229 44.0677 1.99413 44.0677C1.69232 44.0677 1.69781 44.0569 1.42344 43.9544C1.14907 43.8573 0.885671 43.6199 0.693611 43.3933C0.693611 43.4365 0.693611 43.4851 0.693611 43.6037C0.693611 43.6739 0.693611 43.8088 0.666174 43.9274C0.638737 44.0731 0.572888 44.2026 0.430215 44.2026C0.31498 44.2026 0.265593 44.1756 0.177794 44.1055C0.106458 44.0461 0.0680462 43.949 0.0460966 43.8681C0.0186595 43.7602 0.0131721 43.6793 0.0131721 43.6145C0.0131721 43.4959 0.0351217 43.4041 0.0351217 43.2153C0.0351217 43.0804 0.0296343 42.746 0.0296343 42.3845C0.0296343 41.9152 0.0351217 41.4081 0.0570714 41.2354C0.0735336 41.1221 0.079021 40.9711 0.128408 40.8686C0.155845 40.8146 0.172307 40.7769 0.227181 40.7229C0.254618 40.6906 0.320467 40.6474 0.369854 40.6474C0.419241 40.6474 0.474115 40.7013 0.490577 40.7283C0.545451 40.8092 0.594838 40.9333 0.605813 41.025C0.622275 41.1383 0.627762 41.3973 0.63325 41.6724C0.638737 41.872 0.644224 42.0878 0.649712 42.2604C0.666174 42.4115 0.693611 42.5733 0.764947 42.692C0.858233 42.8377 0.962494 42.9294 1.05578 43.0697C1.16004 43.2315 1.22589 43.3124 1.42892 43.3448C1.54416 43.361 1.90084 43.4473 2.06546 43.4473C2.23557 43.4473 2.27947 43.3772 2.42763 43.307C2.58128 43.2315 2.7898 43.2639 2.93248 43.1776C3.04771 43.1074 3.21233 42.9618 3.27818 42.8485C3.34403 42.7406 3.37696 42.6273 3.37696 42.5248C3.37696 42.46 3.36049 42.3899 3.33306 42.3144C3.27269 42.1579 3.17392 42.0231 3.10258 41.872C3.02027 41.7048 2.9654 41.5214 2.86663 41.3595C2.6581 41.0304 2.36178 40.7877 2.10936 40.4909C1.86792 40.205 1.60452 39.9299 1.34661 39.6547C1.07773 39.3688 0.814334 39.0613 0.578375 38.7484C0.347904 38.4409 0.249131 38.0309 0.155845 37.6749C0.0845084 37.3674 0.00219727 37.0437 0.00219727 36.7254C0.00219727 36.2938 0.16682 35.9863 0.375341 35.641C0.572888 35.3119 0.863721 35.0422 1.19297 34.848C1.50026 34.6646 1.71427 34.5998 2.09839 34.5675C2.31788 34.5513 2.38922 34.4488 2.64713 34.4488C2.81175 34.4488 2.94345 34.4919 3.0971 34.5189C3.24526 34.5459 3.40988 34.6214 3.5745 34.6861C3.76656 34.7617 3.94765 34.8318 4.07386 34.9613C4.08483 34.7563 4.09032 34.6106 4.14519 34.5081C4.17263 34.4542 4.18909 34.4218 4.24397 34.3625C4.2714 34.3355 4.37018 34.2869 4.41956 34.2869C4.46895 34.2869 4.52382 34.3409 4.54029 34.3678C4.59516 34.4488 4.64455 34.5728 4.65552 34.6646C4.67747 34.7994 4.68845 35.258 4.68845 35.5385C4.68845 35.7921 4.67747 36.0456 4.67747 36.2021C4.67747 36.5743 4.71588 36.7308 4.7104 37.0652C4.70491 37.2217 4.7104 37.6641 4.447 37.6641C4.33177 37.6641 4.28238 37.6371 4.19458 37.567C4.11776 37.5076 4.08483 37.4159 4.06288 37.3296C4.03544 37.2217 4.02996 37.1462 4.02996 37.076C4.02996 36.9627 4.05191 36.8656 4.05191 36.6822C4.05191 36.5797 4.05191 36.3963 4.04642 36.1805C4.04093 36.051 4.02447 35.9269 3.98606 35.8137C3.93118 35.6518 3.84339 35.5008 3.72815 35.3767C3.62389 35.2688 3.49219 35.1825 3.33306 35.1393C3.19038 35.1015 3.01479 35.0692 2.83919 35.0692C2.64164 35.0692 2.44958 35.1069 2.3124 35.2148C2.19716 35.3011 2.16424 35.4414 2.0929 35.5601C1.99962 35.7058 1.93925 35.846 1.88987 36.0187C1.84597 36.1697 1.79109 36.2884 1.79109 36.4718C1.79109 36.5473 1.85146 36.6498 1.86792 36.72C1.88987 36.8279 1.85694 36.9412 1.88438 37.0437C1.92279 37.1839 2.0929 37.2864 2.19716 37.3835C2.32337 37.5022 2.36178 37.6587 2.46056 37.7989C2.58128 37.9716 2.74042 38.1226 2.90504 38.2629C3.03674 38.3762 3.16843 38.4895 3.28916 38.6082C3.53609 38.8509 3.81046 39.0775 4.04093 39.3365C4.15068 39.4605 4.22202 39.6278 4.33725 39.7411C4.37566 39.7788 4.43603 39.7896 4.46895 39.8274C4.52382 39.8813 4.55126 39.9623 4.59516 40.0216C4.70491 40.1619 4.85307 40.2752 4.94636 40.4208C5.03415 40.5611 5.06159 40.7337 5.12744 40.8848C5.19329 41.0304 5.22073 41.1869 5.2756 41.3325C5.29755 41.3865 5.30304 41.4404 5.30304 41.4944C5.30304 41.5969 5.2756 41.6994 5.24816 41.8181C5.23719 41.872 5.20426 41.9421 5.20426 42.0015Z" fill="white"/>
<path d="M12.4696 34.7941C12.6122 34.7941 12.8866 34.8049 12.8866 35.0207C12.8866 35.1448 12.8701 35.1772 12.8098 35.2635C12.7659 35.3336 12.6891 35.366 12.6232 35.3876C12.5189 35.4199 12.4531 35.4307 12.3872 35.4307C12.3543 35.4307 12.1623 35.4307 11.9373 35.4253C11.9537 35.5332 11.9702 35.6357 11.9702 35.749C11.9702 35.9163 11.9428 36.0835 11.9428 36.2507C11.9428 36.5097 11.9922 36.7632 12.0251 37.0222C12.058 37.2811 12.069 37.5401 12.0745 37.7936C12.08 38.004 12.08 38.2198 12.0909 38.4302C12.1019 38.6568 12.1348 38.8834 12.1348 39.11C12.1348 39.3366 12.0745 39.5577 12.0745 39.7843C12.0745 40.0055 12.08 40.2267 12.08 40.4425C12.08 40.7014 12.0745 40.9604 12.047 41.2247C12.0251 41.4351 12.0415 41.6455 12.0306 41.8559C12.0196 42.0717 11.9976 42.2821 11.9976 42.4979C11.9976 42.6975 12.0745 42.9565 12.0745 43.1884C12.0745 43.3503 12.0361 43.5013 11.9153 43.6092C11.7233 43.7819 11.4818 43.8466 11.2239 43.8466C11.0264 43.8466 10.8178 43.7873 10.6258 43.7171C10.4173 43.6416 10.2307 43.5499 10.0825 43.4366C9.75329 43.1723 9.56672 42.8054 9.40209 42.4332C9.21552 42.0124 9.02346 41.5916 8.85335 41.1654C8.75458 40.9226 8.66129 40.6799 8.56801 40.4317C8.42533 40.0433 8.28815 39.6495 8.15645 39.2556C8.06865 39.0021 7.98085 38.7431 7.89854 38.4896C7.82721 38.2738 7.7449 38.0634 7.64064 37.8692C7.60222 37.799 7.56381 37.7289 7.53089 37.7289C7.4815 37.7289 7.47601 37.8584 7.47601 37.9231C7.47601 37.9933 7.48699 38.0688 7.48699 38.1281C7.48699 38.3709 7.51991 38.6029 7.5254 38.8456C7.53089 39.315 7.57479 39.7789 7.60771 40.2483C7.61869 40.3885 7.61869 40.5288 7.61869 40.6691C7.61869 40.982 7.60222 41.2949 7.60222 41.6078C7.60222 41.9746 7.5693 42.3361 7.5693 42.6975C7.5693 42.8108 7.57479 42.9241 7.58027 43.0374C7.58027 43.1777 7.54735 43.3071 7.53637 43.442C7.80526 43.4312 8.0467 43.4258 8.1784 43.4258C8.32107 43.4258 8.59544 43.4312 8.59544 43.647C8.59544 43.7711 8.57898 43.8035 8.51862 43.8898C8.47472 43.9599 8.3979 43.9923 8.33205 44.0139C8.22779 44.0462 8.15645 44.057 8.09609 44.057C8.05768 44.057 7.79977 44.057 7.55284 44.0516C7.31688 44.0462 7.09738 44.0462 7.04251 44.0462C6.87788 44.0462 6.57059 44.057 6.40597 44.057C6.31817 44.057 6.23037 44.0516 6.13708 44.0408C6.04929 44.03 5.92856 44.0192 5.84625 43.9761C5.75845 43.9275 5.67065 43.8035 5.67065 43.7495C5.67065 43.7171 5.67614 43.6848 5.72004 43.6362C5.77492 43.5769 5.89564 43.5391 5.96697 43.5229C6.17001 43.4852 6.53218 43.4528 6.61449 43.4528C6.65839 43.4528 6.70778 43.4528 6.75716 43.4528C6.76814 42.8378 6.80655 42.2551 6.80655 41.624C6.80655 41.4459 6.80655 41.2679 6.79557 41.0899C6.76814 40.4533 6.75716 39.8167 6.75716 39.1855C6.75716 38.8187 6.76265 38.4518 6.76814 38.0796C6.77362 37.675 6.7846 37.2703 6.79557 36.8711C6.81204 36.391 6.8285 35.9055 6.84496 35.4199H6.40597C6.31817 35.4199 6.23037 35.4145 6.13708 35.4037C6.04929 35.393 5.92856 35.3822 5.84625 35.339C5.75845 35.2905 5.67065 35.1664 5.67065 35.1124C5.67065 35.0801 5.67614 35.0477 5.72004 34.9991C5.77492 34.9398 5.89015 34.8966 5.96697 34.8858C6.17001 34.8481 6.69131 34.8157 6.77362 34.8157C6.86142 34.8157 7.03153 34.8103 7.22359 34.7995C7.3059 34.7294 7.3937 34.6647 7.47601 34.6053C7.58027 34.5244 7.71197 34.4866 7.84367 34.4866C8.03573 34.4866 8.22779 34.5783 8.32656 34.7564C8.41436 34.9074 8.51862 35.0423 8.58447 35.2041C8.67227 35.4091 8.72166 35.6195 8.82043 35.8245C8.90274 35.9972 8.95213 36.1752 9.02346 36.3532C9.10577 36.5474 9.19357 36.7363 9.24845 36.9413C9.30332 37.1409 9.36917 37.3351 9.42404 37.5401C9.47892 37.7343 9.47343 37.9015 9.58318 38.0796C9.80267 38.4248 9.98925 38.8348 10.0825 39.2341C10.1319 39.4391 10.1868 39.6117 10.2801 39.7951C10.3843 39.9893 10.4173 40.1997 10.4667 40.4101C10.5106 40.6097 10.6038 40.7824 10.6971 40.9604C10.741 41.0467 10.8069 41.1168 10.8508 41.2032C10.8947 41.2895 10.9002 41.3866 10.9331 41.4783C10.977 41.6024 11.0154 41.7534 11.0648 41.8721C11.0922 41.9315 11.1197 41.9638 11.1471 41.9638C11.1745 41.9638 11.202 41.9315 11.2239 41.8667C11.2349 41.8236 11.2404 41.775 11.2404 41.7318C11.2404 41.4945 11.2294 41.2517 11.2294 41.0143C11.2294 40.5234 11.2568 40.0379 11.2349 39.5524C11.2129 39.1046 11.1361 38.6676 11.1361 38.2144C11.1361 37.8961 11.1361 37.5779 11.1361 37.2596C11.1361 37.0761 11.1361 36.8927 11.1361 36.7093C11.1361 36.4288 11.1142 36.1428 11.1142 35.8569C11.1142 35.7112 11.1197 35.5656 11.1361 35.4145C10.9934 35.4199 10.8398 35.4253 10.7081 35.4253C10.6203 35.4253 10.527 35.4199 10.4392 35.4091C10.3514 35.3984 10.2307 35.3876 10.1484 35.3444C10.0606 35.2959 9.9673 35.1718 9.9673 35.1178C9.9673 35.0855 9.97278 35.0531 10.0167 35.0045C10.0716 34.9452 10.1868 34.9074 10.2636 34.8912C10.4667 34.8535 10.988 34.8211 11.0703 34.8211C11.1361 34.8211 11.2514 34.8211 11.3885 34.8157C11.4654 34.7402 11.5586 34.697 11.6739 34.697C11.8001 34.697 11.8605 34.7402 11.8934 34.8049C12.1293 34.8049 12.3543 34.7941 12.4696 34.7941Z" fill="white"/>
<path d="M20.1793 43.8302C20.1793 43.9166 20.119 43.9489 20.0531 44.0191C19.9983 44.0892 19.8995 44.127 19.8117 44.1485C19.6635 44.1863 19.5538 44.1917 19.4495 44.1917C19.3507 44.1917 19.252 44.1809 19.1203 44.1809C19.0928 44.1809 19.0544 44.1809 19.005 44.1809C18.9392 44.2079 18.8678 44.2295 18.7965 44.2456C18.7197 44.2618 18.6374 44.278 18.5606 44.278C18.385 44.278 18.2039 44.251 18.0447 44.1917H17.71C17.3808 44.1917 17.1009 44.1863 16.9857 44.1755C16.8704 44.1647 16.7168 44.1593 16.607 44.1108C16.5357 44.0784 16.3711 43.9813 16.3711 43.8842C16.3656 43.7062 16.607 43.6792 16.7442 43.6576C16.8101 43.6468 16.9582 43.6414 17.1393 43.636C17.1283 43.5335 17.1229 43.4256 17.1174 43.3609C17.1009 43.2314 17.0954 43.0966 17.0735 42.9779C17.0625 42.9185 17.0405 42.8646 17.0405 42.7891C17.0405 42.7243 17.068 42.6326 17.068 42.5679C17.068 42.4923 17.0186 42.4438 17.0021 42.3305C16.9802 42.174 16.9363 42.0176 16.9143 41.8611C16.8979 41.7209 16.9088 41.5968 16.8759 41.4565C16.843 41.3001 16.8485 41.1436 16.821 40.9872C16.8046 40.8955 16.7881 40.8631 16.7223 40.8631C16.6893 40.8631 16.64 40.8793 16.5796 40.8793C16.4205 40.8793 16.2668 40.8901 16.1132 40.9009C15.9595 40.9117 15.8114 40.9278 15.6577 40.9278C15.5315 40.9278 15.4053 40.944 15.2791 40.944C15.2187 40.944 15.0541 40.9171 14.9443 40.9171C14.8127 40.9171 14.8017 41.0196 14.8072 41.1059C14.8072 41.2515 14.7523 41.4457 14.7194 41.6022C14.659 41.8665 14.6096 42.1201 14.5602 42.4006C14.5054 42.6865 14.3846 43.1883 14.3023 43.4742C14.434 43.4688 14.5712 43.4688 14.7578 43.4688C14.9498 43.4688 15.2846 43.4796 15.301 43.7116C15.2901 43.8195 15.2791 43.8518 15.2077 43.9327C15.1474 44.0029 15.0541 44.0352 14.9663 44.0568C14.8291 44.0892 14.7413 44.1 14.659 44.1C14.5657 44.1 14.4779 44.0946 14.3352 44.0946C14.1267 44.0946 13.9127 44.1054 13.6987 44.1054C13.5835 44.1054 13.4682 44.1 13.353 44.0892C13.2378 44.0784 13.0841 44.0676 12.9799 44.0245C12.8591 43.9759 12.7439 43.8464 12.7439 43.7979C12.7439 43.7655 12.7494 43.7277 12.8043 43.6846C12.8701 43.6252 13.0238 43.5875 13.117 43.5713C13.3091 43.5443 13.5012 43.5335 13.6932 43.5173C13.6932 43.5066 13.6932 43.4958 13.6932 43.4796C13.6877 43.3231 13.7371 43.1343 13.7481 43.0588C13.803 42.7297 13.8633 42.4168 13.9237 42.0877C13.9676 41.8396 14.006 41.5698 14.0664 41.3055C14.0828 41.2407 14.1432 41.0411 14.1377 40.9278C14.1377 40.8038 13.8469 40.8038 13.7371 40.739C13.6438 40.6905 13.5944 40.6419 13.5944 40.5826C13.5944 40.4585 13.7207 40.4261 13.8633 40.3938C13.9566 40.3776 14.1651 40.3614 14.2584 40.2859C14.3352 40.2265 14.3298 39.973 14.3627 39.8651C14.4505 39.5522 14.5383 39.2393 14.6151 38.9426C14.7029 38.6135 14.7962 38.3006 14.8675 37.9877C14.9443 37.6748 15.0102 37.3619 15.076 37.049C15.1309 36.7523 15.1803 36.4556 15.2846 36.1696C15.3888 35.8729 15.4986 35.5438 15.6358 35.2633L15.7729 34.9828C15.8388 34.8533 15.8772 34.713 16.0034 34.6213C16.2229 34.4649 16.5576 34.4163 16.843 34.4163C17.0351 34.4163 17.1448 34.4487 17.293 34.508C17.4356 34.5674 17.4411 34.6645 17.5344 34.8047C17.6003 34.8965 17.699 34.9774 17.7484 35.0691C17.7978 35.177 17.7978 35.2849 17.8307 35.3982C17.9021 35.6194 17.8911 35.8675 17.9405 36.1049C17.9953 36.3531 18.0996 36.5742 18.127 36.8224C18.1655 37.1191 18.1819 37.3889 18.2533 37.6694C18.3246 37.9337 18.374 38.2035 18.3959 38.484C18.4069 38.6189 18.4343 38.7537 18.4618 38.8832C18.5002 39.0612 18.5496 39.2393 18.5715 39.4065C18.5825 39.482 18.6045 39.6439 18.6429 39.7949C18.6758 39.919 18.7197 40.0377 18.7746 40.0809C18.813 40.1078 18.8788 40.1132 18.9502 40.1132C19.005 40.1132 19.0599 40.1132 19.1093 40.1132C19.252 40.1132 19.4276 40.1618 19.5099 40.2859C19.5428 40.3344 19.5593 40.3668 19.5593 40.3938C19.5593 40.4423 19.5318 40.4855 19.466 40.534C19.3727 40.6096 19.2959 40.7067 19.1861 40.7552C19.1532 40.7714 19.0873 40.7768 19.027 40.7822C18.9776 40.7876 18.9337 40.7984 18.9117 40.8199C18.8953 40.8361 18.8953 40.8523 18.9008 40.8847C18.9008 40.9278 18.9172 40.9926 18.9337 41.0573C18.9502 41.1274 18.9721 41.1976 18.9721 41.2623L18.9776 41.435C18.9776 41.4997 18.9831 41.5429 18.9995 41.6076C19.0325 41.7479 19.0819 41.8881 19.1038 42.0338C19.1203 42.1686 19.1587 42.3089 19.1916 42.4546C19.2245 42.6056 19.2575 42.7513 19.2629 42.8969C19.2684 43.1019 19.2849 43.2098 19.3343 43.3987C19.3507 43.4526 19.3617 43.512 19.3727 43.5713C19.4879 43.5659 19.6086 43.5659 19.7403 43.5659C19.9598 43.5605 20.1739 43.663 20.1793 43.8302ZM16.6674 40.0377C16.6674 39.973 16.64 39.8327 16.629 39.7734C16.5961 39.5737 16.5576 39.4281 16.5576 39.2393C16.5522 38.8185 16.5412 38.3761 16.5192 37.9553C16.5083 37.7557 16.4753 37.5561 16.4424 37.3511C16.404 37.1299 16.3711 36.9033 16.3656 36.6713C16.3656 36.6012 16.3546 36.3207 16.3327 36.1157C16.3162 35.9215 16.2778 35.792 16.2065 35.792C16.0967 35.792 15.954 36.0402 15.9431 36.1049C15.8992 36.2613 15.8662 36.4502 15.8278 36.6066C15.8059 36.6875 15.8004 36.7685 15.7894 36.8386C15.7784 36.9249 15.7675 37.0058 15.74 37.0867C15.6797 37.2594 15.6632 37.4482 15.6358 37.6154C15.5809 37.9769 15.4547 38.3222 15.3504 38.662C15.301 38.8239 15.2736 38.9911 15.2407 39.1583C15.2077 39.3472 15.1693 39.536 15.098 39.7302C15.0651 39.8057 15.0102 40.0593 15.0102 40.151C15.0102 40.1995 15.0431 40.1995 15.109 40.1995C15.2023 40.1995 15.3779 40.1834 15.4272 40.1834C15.5425 40.1834 15.6522 40.1672 15.762 40.1564C15.8498 40.1456 15.9376 40.1348 16.0309 40.1348C16.1241 40.1348 16.2558 40.151 16.3821 40.151C16.4589 40.151 16.5412 40.151 16.607 40.1186C16.64 40.1078 16.6674 40.0755 16.6674 40.0377Z" fill="white"/>
<path d="M25.6173 43.5498C25.6118 43.7063 25.6228 44.1486 25.3649 44.1486C25.2552 44.1486 25.2058 44.1217 25.1235 44.0515C25.0521 43.9922 25.0192 43.9005 24.9973 43.8142C24.9369 43.5606 24.9753 43.3394 24.9863 43.129C24.8875 43.2693 24.7064 43.539 24.5802 43.6523C24.2345 43.9652 23.8614 44.1594 23.3565 44.1594C23.2523 44.1594 23.1425 44.1486 23.0328 44.1325C22.6871 44.0785 22.3194 43.9598 21.9902 43.7872C21.7268 43.6523 21.4908 43.4851 21.2987 43.2855C21.0847 43.0643 20.9366 42.7945 20.8268 42.5248C20.7061 42.2173 20.6403 41.9044 20.5909 41.5753C20.5415 41.2247 20.5195 40.8686 20.5195 40.5179C20.5195 40.1673 20.536 39.8274 20.5689 39.4821C20.5964 39.153 20.5854 38.8294 20.6457 38.5003C20.7061 38.1658 20.8268 37.8205 20.9366 37.4861C21.0518 37.1408 21.1506 36.7955 21.2933 36.4718C21.4304 36.1643 21.6225 35.927 21.842 35.6734C22.056 35.4306 22.2371 35.1609 22.484 34.9505C22.7255 34.7455 22.9998 34.6592 23.3016 34.5783C23.5102 34.5243 23.7406 34.465 23.9711 34.465C24.0644 34.465 24.1522 34.4758 24.24 34.4973C24.3552 34.5297 24.454 34.6322 24.5418 34.7023C24.668 34.7994 24.679 34.9127 24.7887 35.026C24.8601 35.1016 24.9204 35.2634 24.9753 35.3605C24.9808 35.2364 24.9863 35.053 24.9918 34.9829C25.0082 34.8696 25.0082 34.7185 25.0576 34.616C25.0851 34.5621 25.096 34.5297 25.1564 34.4704C25.1838 34.4434 25.2497 34.3948 25.2936 34.3948C25.343 34.3948 25.3924 34.4488 25.4088 34.4758C25.4637 34.5567 25.5076 34.6808 25.5186 34.7725C25.535 34.8858 25.5405 35.1447 25.546 35.4198C25.5515 35.7813 25.557 36.1751 25.5679 36.3208C25.5899 36.6229 25.6009 36.7739 25.5954 37.0761C25.6009 37.1084 25.6009 37.1408 25.6009 37.1732C25.6009 37.2379 25.5954 37.3026 25.5789 37.362C25.557 37.5184 25.4966 37.6749 25.343 37.6749C25.2332 37.6749 25.1838 37.6479 25.1015 37.5778C25.0302 37.5184 24.9973 37.4267 24.9753 37.3404C24.9095 37.0491 24.9643 36.9843 24.9643 36.693C24.9643 36.6553 24.9643 36.6121 24.9643 36.5581C24.8985 36.2776 24.8162 36.0187 24.7174 35.7327C24.6406 35.5062 24.3113 35.1393 24.026 35.1393C23.8559 35.1393 23.6913 35.2418 23.565 35.3497C23.5102 35.3929 23.4663 35.4468 23.4169 35.4954C23.373 35.5385 23.2962 35.5871 23.2687 35.6356C23.2139 35.7327 23.2523 35.8946 23.2084 36.0079C23.148 36.1751 23.0986 36.3208 23.0602 36.4934C22.9998 36.8009 22.923 37.1138 22.8627 37.4267C22.8023 37.7396 22.7639 38.0525 22.7694 38.3708C22.7694 38.4248 22.7858 38.4841 22.7858 38.538C22.7858 38.619 22.7419 38.6783 22.7364 38.7592C22.7364 38.8509 22.7639 38.9427 22.7694 39.029C22.7749 39.0721 22.7694 39.1207 22.7529 39.1692C22.7255 39.2555 22.7145 39.2933 22.7145 39.3473C22.7145 39.3796 22.72 39.4174 22.7364 39.4767C22.7474 39.5253 22.7529 39.5792 22.7529 39.6332C22.7529 39.7249 22.7419 39.8112 22.7419 39.9029C22.7419 40.2482 22.8681 40.5773 22.8791 40.9225C22.8901 41.2678 22.9011 41.6023 22.9834 41.9422C23.0163 42.0824 23.0163 42.2389 23.0602 42.3791C23.1041 42.5194 23.2193 42.6327 23.2797 42.773C23.3949 43.0427 23.598 43.2531 23.9217 43.2585C24.2235 43.2693 24.6022 42.9348 24.7394 42.7082C24.8491 42.5248 24.9314 42.3899 24.9918 42.1903C24.9918 41.7803 24.9973 41.3164 25.0137 41.1707C25.0247 41.0574 25.0302 40.9064 25.0796 40.8039C25.1015 40.7499 25.118 40.7175 25.1783 40.6528C25.2058 40.6258 25.2716 40.5773 25.3155 40.5773C25.3649 40.5773 25.4143 40.6312 25.4308 40.6582C25.4856 40.7391 25.5295 40.8632 25.5405 40.9549C25.557 41.0682 25.5625 41.6347 25.5679 41.9152C25.5734 42.2766 25.5789 42.6705 25.5899 42.8161C25.6118 43.0913 25.6228 43.2477 25.6173 43.5498Z" fill="white"/>
<path d="M30.814 38.6405C30.7098 38.8131 30.5232 39.0127 30.5232 39.2123C30.5232 39.3472 30.7921 39.358 31.0664 39.4767C31.3463 39.5954 31.6865 39.8705 31.8182 40.1402C31.8896 40.2913 31.9719 40.4369 32.0377 40.588C32.1145 40.7552 32.1804 40.9279 32.2078 41.1221C32.2353 41.3109 32.2627 41.4134 32.3395 41.5806C32.4164 41.7479 32.4273 41.9421 32.4767 42.1201C32.5151 42.2604 32.5042 42.4276 32.5535 42.5571C32.581 42.6218 32.6468 42.6758 32.6797 42.7405C32.7182 42.8107 32.784 42.8916 32.806 42.9725C32.8499 43.1236 32.9377 43.2368 32.998 43.3771C33.0694 43.5336 33.1517 43.5713 33.3108 43.6469C33.3986 43.6954 33.4699 43.7979 33.4699 43.9004C33.4699 43.9382 33.4644 43.9759 33.4425 44.0083C33.3821 44.1216 33.1681 44.1917 32.9706 44.1917C32.784 44.1917 32.4987 44.1594 32.2243 44.0838C31.9389 44.0029 31.6317 43.717 31.489 43.5929C31.3573 43.4742 31.264 43.3501 31.1872 43.2153C31.1049 43.075 31.039 42.9186 30.9622 42.7513C30.8195 42.4222 30.7921 42.2172 30.6768 41.872C30.6 41.6454 30.5561 41.408 30.5012 41.176C30.4683 41.0358 30.4354 40.8955 30.386 40.7606C30.3641 40.7013 30.3147 40.5556 30.2598 40.4316C30.1885 40.2697 30.1116 40.1348 29.9964 40.1348C29.9525 40.1348 29.9031 40.1564 29.8482 40.2158C29.7659 40.3021 29.6672 40.4262 29.5958 40.5233C29.4916 40.6635 29.4257 40.8523 29.4093 41.0196C29.3928 41.1275 29.3763 41.2462 29.3763 41.3595C29.3763 41.3864 29.3763 41.408 29.3818 41.435C29.3928 41.5159 29.3983 41.7533 29.3983 41.8989C29.3983 42.3305 29.4257 42.5841 29.3983 43.0157C29.3873 43.1559 29.3818 43.3016 29.3544 43.4419C29.508 43.4365 29.6342 43.4365 29.7111 43.4365C29.9031 43.4365 30.2763 43.4472 30.2763 43.663C30.2763 43.7871 30.2543 43.8195 30.172 43.9058C30.1116 43.9759 30.0129 44.0137 29.9196 44.0299C29.7769 44.0623 29.6891 44.073 29.6013 44.073C29.5629 44.073 29.3269 44.073 29.0526 44.073C28.9593 44.1486 28.855 44.1809 28.7453 44.1809C28.6136 44.1809 28.4764 44.1378 28.3447 44.0784H28.1142C27.8947 44.0784 27.5435 44.0784 27.324 44.0784C27.2033 44.0784 27.0826 44.073 26.9619 44.0623C26.8411 44.0515 26.682 44.0407 26.5723 43.9975C26.4515 43.949 26.3308 43.8249 26.3308 43.7709C26.3308 43.7386 26.3418 43.7008 26.3967 43.6576C26.468 43.5983 26.6271 43.5605 26.7259 43.5444C27.0003 43.5066 27.2856 43.4742 27.3954 43.4742C27.4667 43.4742 27.5655 43.4742 27.6862 43.4688C27.6752 43.4365 27.6643 43.4041 27.6478 43.3771C27.4612 43.0588 27.4338 42.7243 27.4338 42.3629C27.4338 41.9421 27.4448 41.5159 27.4557 41.0951C27.4667 40.6366 27.4832 40.178 27.4832 39.7248C27.4832 39.3418 27.4502 38.9588 27.4502 38.5703C27.4502 38.2089 27.4941 37.8474 27.4941 37.4806C27.4941 37.254 27.5271 37.0382 27.5271 36.8062C27.5271 36.6282 27.4996 36.4556 27.4941 36.2776C27.4887 35.9647 27.4941 35.6787 27.4941 35.382C27.4448 35.3874 27.4832 35.3928 27.324 35.3928C27.2033 35.3928 27.0826 35.3874 26.9619 35.3766C26.8411 35.3658 26.682 35.355 26.5723 35.3119C26.4515 35.2633 26.3308 35.1392 26.3308 35.0853C26.3308 35.0529 26.3363 35.0206 26.3967 34.972C26.468 34.9127 26.6271 34.8749 26.7259 34.8587C27.0003 34.821 27.3844 34.7994 27.4941 34.7994C27.5161 34.7994 27.5545 34.7994 27.6039 34.7994C27.6862 34.6969 27.8069 34.6321 27.9606 34.6321C27.999 34.6321 28.0374 34.6321 28.0813 34.6429C28.1965 34.6645 28.3666 34.7131 28.4929 34.7832C28.9867 34.7724 29.5135 34.7616 29.7056 34.7616C29.8976 34.7616 30.2708 34.7724 30.2708 34.9882C30.2708 35.1123 30.2488 35.1446 30.1665 35.231C30.1062 35.3011 30.0074 35.3389 29.9141 35.355C29.7659 35.3874 29.6726 35.3982 29.5794 35.3982C29.508 35.3982 29.2227 35.3982 28.8989 35.3928C28.9648 35.5061 29.0142 35.6194 29.0142 35.7543C29.0142 35.8244 28.9977 35.8837 28.9977 35.9647C28.9977 36.0186 29.0142 36.0456 29.0306 36.0995C29.0635 36.2452 29.069 36.4016 29.091 36.5527C29.0965 36.6012 29.102 36.6498 29.102 36.6983C29.102 36.8008 29.091 36.9034 29.091 37.0059C29.091 37.2162 29.1404 37.4266 29.1678 37.6424C29.1898 37.8043 29.2556 37.9553 29.2885 38.1172C29.316 38.2467 29.3324 38.3707 29.3324 38.5002C29.3324 38.5434 29.3324 38.5919 29.3269 38.6351C29.316 38.7322 29.316 38.8239 29.3215 38.921C29.3215 39.0073 29.2995 39.1206 29.2995 39.2123C29.2995 39.2717 29.3215 39.3958 29.3818 39.3958C29.4422 39.3958 29.519 39.2879 29.5574 39.2069C29.6452 39.0289 29.7385 38.8455 29.8263 38.6621C29.8921 38.5326 29.9635 38.4031 30.0403 38.2736C30.1665 38.0524 30.3037 37.8313 30.4244 37.6101C30.5232 37.4266 30.622 37.2486 30.7153 37.0652C30.847 36.817 30.9786 36.5689 31.1103 36.3207C31.253 36.0456 31.3902 35.7704 31.5274 35.4953C31.5384 35.4737 31.5493 35.4521 31.5548 35.436C31.478 35.436 31.4067 35.4306 31.3298 35.4198C31.2475 35.409 31.1323 35.3982 31.05 35.355C30.9622 35.3065 30.8799 35.1824 30.8799 35.1285C30.8799 35.0961 30.8854 35.0583 30.9293 35.0152C30.9787 34.9558 31.0939 34.9181 31.1652 34.9019C31.3628 34.8641 31.5878 34.8317 31.714 34.8317C31.7688 34.8317 31.8402 34.8317 31.917 34.8317C31.9335 34.821 31.9499 34.8048 31.9719 34.7994C32.0432 34.7616 32.1091 34.7454 32.1749 34.7454C32.2462 34.7454 32.3176 34.7616 32.3944 34.7778C32.4438 34.7832 32.4712 34.7994 32.4877 34.821C32.7511 34.8102 33.009 34.8048 33.1352 34.8048C33.2724 34.8048 33.5358 34.8102 33.5358 35.026C33.5358 35.15 33.5193 35.1824 33.4644 35.2687C33.4205 35.3389 33.3492 35.3712 33.2834 35.3928C33.1846 35.4252 33.1187 35.436 33.0529 35.436C33.02 35.436 32.7236 35.436 32.4273 35.4306C32.3725 35.5547 32.3176 35.6302 32.2517 35.7543C32.0981 36.0402 31.9883 36.3207 31.8347 36.6012C31.6646 36.9195 31.5493 37.281 31.4012 37.6155C31.2366 37.9715 31.0171 38.306 30.814 38.6405Z" fill="white"/>
<path d="M37.2836 43.4363C37.4812 43.4363 37.8708 43.4471 37.8434 43.6791C37.8324 43.787 37.8159 43.8194 37.7446 43.9003C37.6842 43.9704 37.5854 44.0082 37.4922 44.0244C37.3495 44.0567 37.2617 44.0675 37.1739 44.0675C37.13 44.0675 36.8501 44.0567 36.5483 44.0621C36.1807 44.0675 35.7856 44.0891 35.7088 44.0891C35.4893 44.0891 35.1271 44.0729 34.9021 44.0729C34.7814 44.0729 34.6607 44.0675 34.5399 44.0567C34.4192 44.0459 34.2601 44.0351 34.1503 43.992C34.0296 43.9434 33.9089 43.8194 33.9089 43.7654C33.9089 43.733 33.9144 43.7007 33.9747 43.6521C34.0461 43.5928 34.2052 43.555 34.304 43.5388C34.5783 43.5011 34.8966 43.4687 35.0064 43.4687C35.0448 43.4687 35.0942 43.4687 35.16 43.4687C35.0558 43.377 34.9789 43.2637 34.9789 43.1342C34.9789 43.0587 34.968 42.9939 34.9515 42.9184C34.9405 42.8699 34.935 42.8213 34.935 42.7728C34.935 42.7296 34.9405 42.6864 34.9405 42.6379C34.946 42.5084 34.9515 42.3789 34.9515 42.2441C34.9515 42.1901 34.9515 42.1362 34.9515 42.0822C34.9405 41.3593 34.9734 40.6364 34.957 39.9081C34.946 39.5251 34.957 39.1421 34.968 38.759C34.9789 38.4299 34.9899 38.0955 34.9899 37.7664C34.9899 37.583 34.9899 37.4049 34.9899 37.2215V36.5364C34.9899 36.2181 34.9789 35.8944 34.9899 35.5707C34.9899 35.5221 34.9954 35.479 35.0009 35.4304C34.968 35.4304 34.935 35.4304 34.9021 35.4304C34.7814 35.4304 34.6607 35.425 34.5399 35.4142C34.4192 35.4035 34.2601 35.3927 34.1503 35.3495C34.0296 35.301 33.9089 35.1769 33.9089 35.1229C33.9089 35.0906 33.8924 35.0474 33.9418 34.9935C33.9967 34.9341 34.1887 34.9125 34.2875 34.8963C34.5454 34.8586 34.8911 34.8316 35.0228 34.8262C35.0228 34.7992 35.0173 34.7669 35.0173 34.7453C35.0173 34.6752 35.0283 34.6158 35.0667 34.5727C35.1161 34.5187 35.2204 34.4863 35.2807 34.4594C35.3576 34.4216 35.4399 34.4 35.5222 34.3838C35.5935 34.3731 35.6649 34.3623 35.7417 34.3623C35.8405 34.3623 35.9392 34.3731 36.0325 34.3946C36.2685 34.454 36.4605 34.5996 36.5703 34.7992C36.8831 34.7938 37.1519 34.7885 37.2782 34.7885C37.4757 34.7885 37.8653 34.7992 37.8379 35.0312C37.8269 35.1391 37.8104 35.1715 37.7391 35.2524C37.6787 35.3225 37.58 35.3549 37.4867 35.3765C37.344 35.4089 37.2562 35.4196 37.1684 35.4196C37.1355 35.4196 36.9544 35.4196 36.7239 35.4196L36.7294 35.4466C36.7569 35.6246 36.7843 35.8027 36.8117 35.9807C36.8337 36.1587 36.8501 36.3314 36.8501 36.5094C36.8501 36.682 36.8392 36.8493 36.8392 37.0219C36.8392 37.1082 36.8227 37.1891 36.8227 37.2808C36.8227 37.351 36.8337 37.4211 36.8501 37.4966C36.905 37.8527 36.8995 38.2195 36.916 38.581C36.9324 38.9802 36.9379 39.3794 36.9434 39.784C36.9489 40.1131 36.9544 40.4368 36.9654 40.7605C36.9763 41.1273 37.0367 41.4834 37.0477 41.8502C37.0532 42.0229 37.0587 42.2009 37.0641 42.3735C37.0696 42.557 37.0696 42.7458 37.0587 42.9292C37.0477 43.0911 37.0422 43.2745 36.9818 43.4309C37.108 43.4417 37.2178 43.4363 37.2836 43.4363Z" fill="white"/>
<path d="M45.0594 34.7994C45.2021 34.7994 45.4764 34.8102 45.4764 35.026C45.4764 35.15 45.46 35.1824 45.3996 35.2687C45.3557 35.3389 45.2789 35.3766 45.213 35.3928C45.1088 35.4252 45.0429 35.436 44.9771 35.436C44.9442 35.436 44.7521 35.436 44.5271 35.4306C44.5436 35.5385 44.56 35.641 44.56 35.7543C44.56 35.9215 44.5326 36.0887 44.5326 36.2614C44.5326 36.5203 44.582 36.7739 44.6149 37.0328C44.6478 37.2918 44.6588 37.5507 44.6643 37.8043C44.6698 38.0147 44.6698 38.2305 44.6808 38.4409C44.6917 38.6675 44.7247 38.894 44.7247 39.1206C44.7247 39.3472 44.6643 39.5684 44.6643 39.795C44.6643 40.0162 44.6698 40.2373 44.6698 40.4531C44.6698 40.7121 44.6643 40.971 44.6369 41.2354C44.6149 41.4458 44.6314 41.6562 44.6204 41.8666C44.6094 42.0824 44.5875 42.2928 44.5875 42.5086C44.5875 42.7082 44.6643 42.9671 44.6643 43.1991C44.6643 43.3609 44.6259 43.512 44.5052 43.6199C44.3131 43.7871 44.0717 43.8573 43.8137 43.8573C43.6162 43.8573 43.4077 43.7979 43.2156 43.7278C43.0071 43.6523 42.8205 43.5605 42.6724 43.4419C42.3431 43.1775 42.1565 42.8107 41.9919 42.4384C41.8054 42.0176 41.6133 41.5968 41.4432 41.1706C41.3444 40.9279 41.2511 40.6851 41.1578 40.437C41.0152 40.0485 40.878 39.6547 40.7463 39.2609C40.6585 39.0073 40.5762 38.7484 40.4884 38.4948C40.417 38.279 40.3347 38.074 40.2305 37.8744C40.1921 37.8043 40.1536 37.7342 40.1207 37.7342C40.0713 37.7342 40.0658 37.8636 40.0658 37.9284C40.0658 37.9985 40.0768 38.074 40.0768 38.1334C40.0768 38.3761 40.1097 38.6081 40.1152 38.8509C40.1207 39.3202 40.1646 39.7842 40.1975 40.2535C40.2085 40.3938 40.2085 40.5341 40.2085 40.6797C40.2085 40.9926 40.1921 41.3055 40.1921 41.6184C40.1921 41.9853 40.1591 42.3467 40.1591 42.7082C40.1591 42.8215 40.1591 42.9347 40.1701 43.048C40.1701 43.1883 40.1372 43.3178 40.1262 43.4526C40.3951 43.4419 40.6365 43.4365 40.7682 43.4365C40.9109 43.4365 41.1853 43.4419 41.1853 43.6577C41.1853 43.7817 41.1688 43.8141 41.1085 43.9004C41.0646 43.9705 40.9877 44.0029 40.9219 44.0245C40.8176 44.0569 40.7463 44.0677 40.6859 44.0677C40.6475 44.0677 40.3896 44.0677 40.1427 44.0623C39.9067 44.0569 39.6872 44.0569 39.6323 44.0569C39.4677 44.0569 39.1659 44.0677 38.9958 44.0677C38.908 44.0677 38.8147 44.0623 38.7269 44.0515C38.6391 44.0407 38.5184 44.0299 38.4361 43.9867C38.3483 43.9382 38.255 43.8087 38.255 43.7602C38.255 43.7278 38.2605 43.6954 38.3044 43.6469C38.3593 43.5875 38.4745 43.5498 38.5513 43.5336C38.7544 43.4958 39.1165 43.4634 39.1988 43.4634C39.2427 43.4634 39.2921 43.4634 39.3415 43.4634C39.3525 42.8484 39.3909 42.2658 39.3909 41.6346C39.3909 41.4566 39.3854 41.2785 39.3799 41.1005C39.3525 40.4639 39.3415 39.8273 39.3415 39.1961C39.3415 38.8293 39.347 38.4625 39.3525 38.0902C39.358 37.6856 39.3689 37.281 39.3799 36.8818C39.3964 36.4016 39.4128 35.9161 39.4293 35.4306H38.9903C38.9025 35.4306 38.8092 35.4252 38.7214 35.4144C38.6336 35.4036 38.5129 35.3928 38.4306 35.3497C38.3373 35.3011 38.2495 35.177 38.2495 35.1231C38.2495 35.0907 38.255 35.0583 38.2989 35.0098C38.3538 34.9504 38.469 34.9127 38.5458 34.8965C38.7489 34.8587 39.2702 34.8264 39.3525 34.8264C39.4403 34.8264 39.6104 34.821 39.8025 34.8102C39.8848 34.74 39.9726 34.6753 40.0494 34.616C40.1536 34.535 40.2853 34.4973 40.417 34.4973C40.6091 34.4973 40.8012 34.589 40.8999 34.767C40.9822 34.9181 41.092 35.0529 41.1578 35.2094C41.2402 35.4144 41.295 35.6248 41.3938 35.8298C41.4761 36.0024 41.5255 36.1805 41.5968 36.3531C41.6791 36.5473 41.7669 36.7361 41.8218 36.9411C41.8767 37.1407 41.9425 37.3349 41.9974 37.5399C42.0523 37.7342 42.0468 37.9014 42.1566 38.0794C42.376 38.4301 42.5571 38.8347 42.6559 39.2339C42.7053 39.4335 42.7602 39.6115 42.8535 39.795C42.9577 39.9892 42.9906 40.1942 43.04 40.41C43.0839 40.6096 43.1772 40.7822 43.2705 40.9602C43.3144 41.0466 43.3802 41.1167 43.4241 41.203C43.468 41.2947 43.4735 41.3864 43.5065 41.4782C43.5504 41.6022 43.5888 41.7533 43.6436 41.872C43.6711 41.9313 43.6985 41.9583 43.726 41.9583C43.7534 41.9583 43.7808 41.9259 43.7973 41.8612C43.8083 41.818 43.8137 41.7695 43.8137 41.7209C43.8137 41.4835 43.8028 41.2408 43.8028 41.0034C43.8028 40.5125 43.8302 40.0269 43.8083 39.5414C43.7863 39.0936 43.7095 38.6567 43.7095 38.2035C43.7095 37.8852 43.7095 37.5669 43.7095 37.2486C43.7095 37.0652 43.7095 36.8818 43.7095 36.6984C43.7095 36.4178 43.6875 36.1319 43.6875 35.846C43.6875 35.7003 43.693 35.5547 43.7095 35.4036C43.5668 35.409 43.4132 35.4144 43.2815 35.4144C43.1937 35.4144 43.1004 35.409 43.0126 35.3982C42.9248 35.3874 42.8041 35.3766 42.7218 35.3335C42.634 35.2849 42.5462 35.1608 42.5462 35.1069C42.5462 35.0745 42.5516 35.0421 42.5955 34.9936C42.6504 34.9343 42.7657 34.8965 42.8425 34.8803C43.0455 34.8425 43.5668 34.8102 43.6491 34.8102C43.715 34.8102 43.8302 34.8102 43.9674 34.8048C44.0442 34.7292 44.1375 34.6861 44.2527 34.6861C44.379 34.6861 44.4393 34.7292 44.4722 34.794C44.7137 34.8048 44.9387 34.7994 45.0594 34.7994Z" fill="white"/>
<path d="M52.0667 40.0541C52.0667 40.1943 51.9076 40.2968 51.7868 40.3562C51.6167 40.4371 51.3588 40.4748 51.1722 40.4964C51.0076 40.518 50.9034 40.5288 50.9034 40.6798C50.9034 40.7931 50.9308 41.0629 50.9308 41.16C50.9308 41.2139 50.9308 41.5808 50.9308 41.6293C50.9363 41.7264 50.9363 41.8397 50.9418 41.953C50.9473 42.3145 50.9528 42.7568 50.9637 42.9025C50.9912 43.2046 51.0021 43.3611 50.9912 43.6632C50.9912 43.8196 50.9966 44.262 50.7387 44.262C50.629 44.262 50.5796 44.235 50.4973 44.1649C50.426 44.1055 50.393 44.0138 50.3711 43.9275C50.3436 43.8196 50.3382 43.7441 50.3382 43.674C50.3382 43.5553 50.3601 43.4636 50.3601 43.2801V43.2424C50.2723 43.5391 50.0748 43.7927 49.8114 43.9923C49.4382 44.2782 49.1584 44.4023 48.6865 44.4023C48.4011 44.4023 48.1158 44.3591 47.8524 44.2674C47.5396 44.1649 47.2872 43.9923 47.0732 43.7873C46.7604 43.4851 46.5299 43.0967 46.3269 42.6975C46.1677 42.39 46.0799 42.0771 46.0196 41.7534C45.9812 41.5322 45.9482 41.3056 45.9153 41.0737C45.8824 40.8471 45.8934 40.696 45.8934 40.491C45.8934 39.7034 46.1019 38.9104 46.3049 38.0418C46.3982 37.648 46.4915 37.2488 46.6177 36.8603C46.7549 36.4449 46.925 36.0457 47.1774 35.6897C47.3969 35.3822 47.6493 35.0477 47.9402 34.7995C48.0773 34.6862 48.22 34.6107 48.3901 34.5621C48.6041 34.5028 48.7907 34.3895 49.0212 34.3841C49.0596 34.3841 49.0925 34.3787 49.1254 34.3787C49.2297 34.3787 49.2901 34.3895 49.4437 34.4111C49.6303 34.4381 49.8114 34.492 49.954 34.5783C50.0857 34.6539 50.179 34.7671 50.2558 34.8912C50.2668 34.7995 50.2778 34.697 50.3107 34.6269C50.3382 34.5729 50.3491 34.5352 50.4095 34.4812C50.4369 34.4542 50.4973 34.4057 50.5467 34.4057C50.5961 34.4057 50.6455 34.4596 50.6619 34.4866C50.7168 34.5675 50.7607 34.6916 50.7717 34.7833C50.7881 34.8966 50.7936 35.1502 50.7991 35.4307C50.8046 35.7922 50.8101 36.186 50.8211 36.3316C50.843 36.6337 50.854 36.7902 50.8485 37.0923C50.843 37.2488 50.8485 37.6911 50.5961 37.6911C50.4863 37.6911 50.4369 37.6642 50.3546 37.594C50.2833 37.5347 50.2449 37.4376 50.2284 37.3513C50.2119 37.2649 50.2065 37.1894 50.2065 37.1085C50.2065 36.9952 50.2174 36.8765 50.2174 36.7093C50.2065 36.6122 50.1955 36.5151 50.1845 36.418C50.1626 36.2022 50.1242 35.9864 50.0912 35.7814C50.0583 35.5872 49.9705 35.3929 49.8553 35.2149C49.773 35.0908 49.5699 35.0369 49.4218 35.0369C49.2132 35.0369 49.087 35.1394 48.9828 35.3012C48.884 35.4631 48.7358 35.5979 48.6755 35.776C48.6096 35.9594 48.5712 36.1698 48.5548 36.364C48.5383 36.569 48.4999 36.7309 48.445 36.9251C48.3792 37.1355 48.3682 37.3674 48.3243 37.5832C48.2859 37.7774 48.2639 37.9771 48.2475 38.1767C48.231 38.3601 48.1761 38.5381 48.1542 38.7215C48.1322 38.9319 48.1048 39.1423 48.0773 39.3527C48.0499 39.5523 48.028 39.7519 48.006 39.9516C47.9896 40.1296 47.9621 40.313 47.9621 40.491C47.9621 40.7446 47.995 40.9981 48.006 41.2517C48.0225 41.597 48.1322 41.9422 48.1981 42.2767C48.2255 42.4116 48.2529 42.5464 48.2914 42.6759C48.3407 42.8486 48.4066 43.0158 48.5054 43.1669C48.648 43.3826 48.8895 43.6308 49.1693 43.6308C49.4053 43.6308 49.5809 43.4474 49.7071 43.2694C49.8992 42.9942 50.0034 42.6813 50.0693 42.3576C50.1241 42.0771 50.1516 41.7858 50.168 41.4999C50.179 41.3056 50.19 41.0251 50.19 40.8309C50.19 40.7931 50.19 40.7554 50.19 40.723C50.19 40.572 50.1845 40.5234 49.965 40.5234C49.7894 40.5234 49.5974 40.5504 49.4108 40.5504C49.2462 40.5504 49.0925 40.5288 48.9444 40.4587C48.884 40.4263 48.8511 40.3939 48.8456 40.3562C48.8456 40.3238 48.862 40.286 48.9005 40.2483C48.9883 40.1512 49.0815 40.1404 49.1748 40.0918C49.3724 39.9947 49.5919 39.9731 49.8223 39.9354C50.0309 39.903 50.2394 39.8868 50.4369 39.8706C50.5961 39.8598 50.7552 39.8544 50.9198 39.8544C51.1613 39.8544 51.5399 39.8329 51.6935 39.8329C51.8637 39.8167 52.0667 39.876 52.0667 40.0541Z" fill="white"/>
<path d="M62.6245 43.4418C62.8166 43.4418 63.1897 43.4525 63.1897 43.6683C63.1897 43.7924 63.1678 43.8248 63.0909 43.9111C63.0306 43.9812 62.9318 44.019 62.8385 44.0352C62.6959 44.0676 62.6081 44.0783 62.5203 44.0783C62.4873 44.0783 62.3062 44.0783 62.0703 44.0783C61.8673 44.1862 61.6258 44.2618 61.3899 44.2618C61.2472 44.2618 61.11 44.2348 60.9838 44.1808C60.9179 44.1539 60.8631 44.1161 60.8082 44.0729C60.6161 44.0729 60.446 44.0837 60.2485 44.0837C60.1277 44.0837 60.007 44.0783 59.8863 44.0675C59.7656 44.0568 59.6064 44.046 59.4967 44.0028C59.376 43.9543 59.2552 43.8302 59.2552 43.7762C59.2552 43.7439 59.2607 43.7115 59.3211 43.6629C59.3924 43.6036 59.5516 43.5604 59.6503 43.5496C59.9247 43.5119 60.3033 43.4795 60.4131 43.4795H60.468C60.4515 43.4148 60.4405 43.3554 60.4296 43.2907C60.3637 42.9131 60.3363 42.5192 60.3033 42.0391C60.2704 41.5482 60.2814 41.0519 60.2594 40.5663C60.2375 40.1293 60.2265 39.6924 60.2155 39.2554C60.2046 38.8292 60.1936 38.3976 60.1716 37.9714C60.1497 37.5776 60.1223 37.0381 60.1223 36.8925C60.1223 36.8223 60.1058 36.7846 60.0784 36.7846C60.0619 36.7846 60.0454 36.8061 60.0345 36.8493C59.9906 37.0273 59.9796 37.2054 59.9412 37.3834C59.8534 37.7772 59.7765 38.1656 59.6887 38.5595C59.601 38.9371 59.5022 39.3147 59.4583 39.6978C59.4363 39.892 59.3924 40.0754 59.343 40.2642C59.2937 40.453 59.2388 40.6419 59.2004 40.8361C59.162 41.0411 59.1235 41.2515 59.0193 41.4079C58.926 41.5482 58.7669 41.6399 58.5035 41.6399C58.2017 41.6399 57.8779 41.5266 57.6639 41.327C57.384 41.0626 57.2908 40.6419 57.203 40.2858C57.1042 39.892 57.0274 39.4928 56.945 39.0935C56.9286 39.018 56.8627 38.6781 56.7804 38.2627C56.7036 37.8851 56.6103 37.4481 56.5225 37.0867C56.4622 36.8169 56.4018 36.5957 56.3579 36.4717C56.3305 36.4015 56.325 36.38 56.3085 36.38C56.2756 36.38 56.2591 36.4717 56.2481 36.6227C56.2372 36.7576 56.2372 36.9464 56.2317 36.9842C56.2207 37.1622 56.2042 37.3402 56.2042 37.5129C56.2042 37.6531 56.1933 37.8959 56.1768 38.1602C56.1603 38.3976 56.1439 38.6512 56.1329 38.867C56.1219 39.0558 56.1055 39.2446 56.1055 39.4334C56.1055 39.6007 56.0725 39.7517 56.0725 39.9136C56.0725 40.0376 56.078 40.1671 56.078 40.2912C56.078 40.4045 56.0725 40.5178 56.0616 40.6311C56.0396 40.8522 56.0012 41.0734 55.9628 41.2892C55.8915 41.7262 55.8421 42.1686 55.8091 42.6056C55.7927 42.7944 55.8037 43.0317 55.7872 43.2691C55.7817 43.3393 55.7762 43.404 55.7598 43.4687C56.078 43.4579 56.3908 43.4525 56.5225 43.4525C56.6762 43.4525 56.9944 43.4903 56.9944 43.7061C56.9944 43.8356 56.9121 43.8302 56.8463 43.9165C56.7969 43.9866 56.7146 44.019 56.6432 44.0406C56.528 44.0729 56.4567 44.0837 56.3853 44.0837C56.3085 44.0837 55.5403 44.0729 55.4195 44.0729C55.2439 44.0729 54.7336 44.0891 54.558 44.0891C54.4592 44.0891 54.366 44.0837 54.2672 44.0729C54.1739 44.0622 54.0422 44.0514 53.9544 44.0082C53.8447 43.9543 53.7788 43.8248 53.7788 43.7708C53.7788 43.7385 53.7843 43.7061 53.8337 43.6575C53.8886 43.5982 53.9873 43.5604 54.0642 43.5443C54.2836 43.5065 54.7172 43.4741 54.805 43.4741C54.8543 43.4741 54.9367 43.4741 55.0409 43.4687C55.0574 43.0911 55.1068 42.7135 55.1397 42.3358C55.1781 41.8611 55.2055 41.3863 55.2275 40.9116C55.2494 40.5178 55.2659 40.1186 55.2824 39.7193C55.3043 39.1583 55.3317 38.5918 55.3702 38.0308C55.3866 37.7448 55.4141 37.4643 55.436 37.1784C55.4799 36.7306 55.5348 36.4555 55.6006 36.0077C55.6336 35.7973 55.6445 35.5599 55.6775 35.3495C55.6775 35.3334 55.6829 35.3118 55.6829 35.2956C55.5897 35.301 55.5128 35.3064 55.3702 35.3064C55.2494 35.3064 55.1287 35.301 55.008 35.2902C54.8873 35.2794 54.7281 35.2686 54.6184 35.2255C54.4977 35.1769 54.3769 35.0528 54.3769 34.9989C54.3769 34.9665 54.3824 34.9341 54.4428 34.8856C54.5141 34.8263 54.6733 34.7885 54.772 34.7723C55.0464 34.7345 55.425 34.7022 55.5348 34.7022C55.853 34.7022 56.1055 34.6644 56.4731 34.6644C56.517 34.6644 56.5609 34.6644 56.6103 34.6644C56.753 34.6644 56.9066 34.6698 57.0219 34.7291C57.2249 34.8316 57.4718 35.042 57.5761 35.4359C57.6804 35.8135 57.8505 36.2019 57.9547 36.6011C58.0041 36.7792 57.9767 36.9626 58.037 37.1406C58.1029 37.351 58.1578 37.556 58.1907 37.7772C58.2181 37.9552 58.2236 38.1279 58.3004 38.2951C58.3827 38.4731 58.3937 38.608 58.4266 38.7968C58.4376 38.8616 58.5309 39.1367 58.6022 39.3579C58.6681 39.5629 58.712 39.7139 58.7559 39.7139C58.8547 39.7139 58.8876 39.2392 58.904 39.1529C58.9425 38.9371 58.9864 38.7159 59.0248 38.5001C59.1071 38.0523 59.2004 37.6046 59.2937 37.1568C59.3869 36.6982 59.4693 36.2289 59.5845 35.7757C59.6778 35.4035 59.8204 35.0313 60.0948 34.7507C60.2759 34.5673 60.5283 34.4324 60.7862 34.4324C60.885 34.4324 61.0222 34.4432 61.1265 34.5187L62.1526 34.5134C62.3501 34.5134 62.7178 34.5241 62.7178 34.7561C62.7178 34.864 62.6904 34.8964 62.619 34.9773C62.5587 35.0474 62.4599 35.0798 62.3666 35.1014C62.2239 35.1338 62.1361 35.1445 62.0483 35.1445C61.9935 35.1445 61.8179 35.1445 61.6478 35.1392C61.6642 35.1715 61.6752 35.2039 61.6807 35.2416C61.7136 35.4359 61.7356 35.6301 61.763 35.8297C61.7849 36.0347 61.8069 36.2451 61.8343 36.4501C61.8563 36.5957 61.9002 36.736 61.9002 36.8817C61.9002 36.9032 61.9002 36.9302 61.9002 36.9518C61.8947 37.0004 61.8947 37.0435 61.8947 37.0921C61.8947 37.2323 61.9112 37.3726 61.9276 37.5237C61.9496 37.7125 61.9935 37.9067 61.9935 38.0955C61.9935 38.1548 61.9825 38.2142 61.9825 38.2735C61.9825 38.3652 62.0374 38.4408 62.0538 38.5325C62.0648 38.5864 62.0703 38.6458 62.0758 38.6997C62.0813 38.813 62.0703 38.9371 62.0703 39.0558C62.0703 39.1745 62.0758 39.2985 62.0867 39.4172C62.0977 39.5467 62.1142 39.6816 62.1416 39.8164C62.1636 39.9243 62.1746 40.0161 62.1746 40.1132C62.1746 40.1725 62.1636 40.2265 62.1636 40.302C62.1636 40.3721 62.1636 40.3667 62.1855 40.4261C62.2239 40.5286 62.2404 40.6095 62.2514 40.7174C62.2733 40.89 62.2953 41.0626 62.3117 41.2353C62.3337 41.4565 62.3556 41.6777 62.3721 41.8988C62.3721 41.9258 62.3776 41.9582 62.3776 41.9852C62.3776 42.0661 62.3611 42.1416 62.3611 42.2171C62.3611 42.4113 62.3831 42.4869 62.405 42.5624C62.4215 42.6217 62.427 42.6757 62.427 42.7296C62.427 42.7998 62.4215 42.8699 62.4215 42.94C62.4215 42.9832 62.4215 43.0264 62.4325 43.0695C62.4489 43.1666 62.4599 43.2637 62.4599 43.3662C62.4599 43.3932 62.4599 43.4202 62.4599 43.4418C62.5257 43.4418 62.5806 43.4418 62.6245 43.4418Z" fill="white"/>
<path d="M70.8775 43.841C70.8775 43.9273 70.8171 43.9596 70.7512 44.0352C70.6909 44.1053 70.5976 44.1431 70.5098 44.1646C70.3616 44.2024 70.2519 44.2078 70.1476 44.2078C70.0489 44.2078 69.9501 44.197 69.8184 44.197C69.7909 44.197 69.7525 44.197 69.7031 44.197C69.6373 44.224 69.566 44.2456 69.4946 44.2618C69.4123 44.2779 69.3355 44.2941 69.2587 44.2941C69.0831 44.2941 68.902 44.2672 68.7428 44.2078C68.6276 44.2078 68.5179 44.2078 68.4081 44.2078C68.0789 44.2078 67.7935 44.2024 67.6783 44.1916C67.5631 44.1808 67.4094 44.1754 67.3051 44.1269C67.2338 44.0945 67.0692 43.9974 67.0692 43.9003C67.0637 43.7223 67.3051 43.6953 67.4423 43.6737C67.5082 43.6629 67.6509 43.6575 67.8374 43.6521C67.8265 43.5496 67.821 43.4417 67.8155 43.377C67.799 43.2475 67.7935 43.1127 67.7716 42.994C67.7606 42.9292 67.7387 42.8807 67.7387 42.8052C67.7387 42.7404 67.7661 42.6487 67.7661 42.584C67.7661 42.5084 67.7167 42.4599 67.6948 42.3466C67.6783 42.1902 67.6289 42.0337 67.607 41.8773C67.5905 41.737 67.6015 41.6129 67.5685 41.4726C67.5356 41.3162 67.5411 41.1597 67.5137 41.0033C67.4972 40.9116 67.4807 40.8792 67.4149 40.8792C67.382 40.8792 67.3326 40.8954 67.2722 40.8954C67.1131 40.8954 66.9594 40.9062 66.8058 40.917C66.6521 40.9278 66.504 40.944 66.3503 40.944C66.2241 40.944 66.0979 40.9601 65.9662 40.9601C65.9113 40.9601 65.7412 40.9332 65.6315 40.9332C65.4998 40.9332 65.4943 41.0357 65.4943 41.122C65.4943 41.2676 65.4394 41.4619 65.4065 41.6183C65.3461 41.8826 65.3022 42.1362 65.2474 42.4167C65.1925 42.7027 65.0718 43.2044 64.9895 43.4903C65.1212 43.4849 65.2583 43.4849 65.4504 43.4849C65.6425 43.4849 65.9772 43.4957 65.9937 43.7277C65.9827 43.8356 65.9717 43.8679 65.9004 43.9489C65.8455 44.019 65.7467 44.0514 65.6589 44.0729C65.5217 44.1053 65.4339 44.1107 65.3516 44.1161C65.2583 44.1161 65.1705 44.1107 65.0279 44.1107C64.8194 44.1107 64.6053 44.1215 64.3968 44.1215C64.2816 44.1215 64.1664 44.1161 64.0511 44.1053C63.9359 44.0945 63.7822 44.0837 63.6725 44.0406C63.5518 43.992 63.4365 43.8679 63.4365 43.814C63.4365 43.7816 63.442 43.7439 63.4969 43.7007C63.5627 43.6414 63.7164 43.6036 63.8097 43.5874C64.0017 43.5604 64.1938 43.5496 64.3858 43.5335C64.3858 43.5227 64.3804 43.5119 64.3804 43.4957C64.3749 43.3392 64.4243 43.1504 64.4352 43.0749C64.4901 42.7458 64.5505 42.4329 64.6108 42.1038C64.6547 41.8557 64.6931 41.5859 64.7535 41.3216C64.77 41.2569 64.8303 41.0572 64.8248 40.944C64.8248 40.8199 64.534 40.8199 64.4243 40.7551C64.3255 40.7066 64.2816 40.658 64.2761 40.5987C64.2706 40.4746 64.4023 40.4422 64.545 40.4099C64.6383 40.3937 64.8468 40.3775 64.9401 40.302C65.0169 40.2426 65.0114 39.9891 65.0443 39.8812C65.1376 39.5683 65.2199 39.2554 65.2968 38.9587C65.3846 38.6296 65.4778 38.3167 65.5492 38.0038C65.626 37.6909 65.6973 37.378 65.7577 37.0651C65.8181 36.7684 65.862 36.4717 65.9662 36.1857C66.076 35.889 66.1802 35.5599 66.3174 35.2794L66.4546 34.9989C66.5204 34.8694 66.5589 34.7291 66.6851 34.6374C66.9046 34.481 67.2393 34.4324 67.5246 34.4324C67.7167 34.4324 67.8265 34.4648 67.9746 34.5241C68.1173 34.5835 68.1228 34.6806 68.2215 34.8209C68.2874 34.9126 68.3807 34.9935 68.4356 35.0852C68.4849 35.1931 68.4849 35.301 68.5179 35.4143C68.5837 35.6355 68.5782 35.8836 68.6276 36.121C68.6825 36.3692 68.7867 36.5903 68.8142 36.8385C68.8526 37.1352 68.8691 37.405 68.9404 37.6855C69.0117 37.9498 69.0611 38.2196 69.0831 38.5001C69.094 38.635 69.1215 38.7698 69.1489 38.8993C69.1873 39.0774 69.2367 39.2554 69.2587 39.4226C69.2696 39.4981 69.2916 39.66 69.33 39.811C69.3629 39.9351 69.4068 40.0538 69.4617 40.097C69.5001 40.1239 69.566 40.1293 69.6373 40.1293C69.6922 40.1293 69.7525 40.1293 69.7964 40.1293C69.9391 40.1293 70.1147 40.1779 70.197 40.302C70.2299 40.3505 70.2464 40.3829 70.2464 40.4099C70.2464 40.4584 70.219 40.5016 70.1531 40.5501C70.0598 40.6257 69.9775 40.7228 69.8733 40.7713C69.8403 40.7875 69.7745 40.7929 69.7141 40.7983C69.6647 40.8037 69.6208 40.8145 69.5989 40.8361C69.5824 40.8522 69.5824 40.8684 69.5879 40.9008C69.5879 40.944 69.6044 41.0087 69.6208 41.0734C69.6373 41.1436 69.6592 41.2137 69.6592 41.2784L69.6647 41.4511C69.6647 41.5158 69.6702 41.559 69.6867 41.6237C69.7196 41.764 69.769 41.9042 69.7909 42.0445C69.8074 42.1794 69.8458 42.3196 69.8787 42.4653C69.9117 42.6163 69.9446 42.762 69.9501 42.9077C69.9556 43.1127 69.972 43.2206 70.0214 43.4094C70.0379 43.4633 70.0489 43.5227 70.0598 43.582C70.1751 43.5766 70.2958 43.5766 70.4275 43.5766C70.658 43.5658 70.8775 43.6737 70.8775 43.841ZM67.3655 40.0484C67.3655 39.9837 67.3381 39.8434 67.3271 39.7841C67.2942 39.5845 67.2558 39.4388 67.2503 39.25C67.2448 38.8292 67.2338 38.3868 67.2119 37.966C67.2009 37.7664 67.168 37.5668 67.135 37.3618C67.0966 37.1406 67.0637 36.914 67.0582 36.6821C67.0582 36.6119 67.0472 36.3368 67.0253 36.1264C67.0088 35.9322 66.9704 35.8027 66.9046 35.8027C66.7948 35.8027 66.6521 36.0509 66.6412 36.1156C66.5973 36.2721 66.5643 36.4609 66.5204 36.6173C66.4985 36.6982 66.493 36.7792 66.482 36.8493C66.4711 36.9356 66.4601 37.0165 66.4326 37.0975C66.3723 37.2701 66.3558 37.4589 66.3284 37.6315C66.2735 37.993 66.1528 38.3383 66.043 38.6781C65.9937 38.84 65.9662 39.0072 65.9333 39.1745C65.9004 39.3633 65.862 39.5521 65.7906 39.7463C65.7632 39.8218 65.7028 40.0754 65.7028 40.1671C65.7028 40.2157 65.7358 40.2157 65.8016 40.2157C65.8949 40.2157 66.0705 40.1995 66.1199 40.1995C66.2351 40.1995 66.3449 40.1833 66.4546 40.1725C66.5424 40.1617 66.6302 40.1509 66.7235 40.1509C66.8168 40.1509 66.9485 40.1671 67.0747 40.1671C67.1515 40.1671 67.2338 40.1671 67.2942 40.1347C67.3381 40.1185 67.3655 40.0862 67.3655 40.0484Z" fill="white"/>
<path d="M78.1155 39.5252C78.1155 39.5792 78.1484 39.7302 78.1484 39.822C78.1484 39.946 78.0771 40.0593 78.0606 40.178C78.0386 40.3075 78.0551 40.4424 78.0386 40.5718C78.0332 40.6312 77.9947 40.7337 77.9618 40.8362C77.9344 40.9279 77.9179 41.025 77.885 41.0951C77.8301 41.2246 77.8137 41.3703 77.7862 41.5105C77.7588 41.6454 77.7313 41.7803 77.671 41.9043C77.6216 42.023 77.5338 42.104 77.457 42.2226C77.3966 42.309 77.3911 42.4007 77.3362 42.487C77.2649 42.5895 77.1222 42.8376 77.0454 42.9348C76.7271 43.3609 76.4363 43.5498 76.2223 43.7116C76.0741 43.8249 75.8821 43.8896 75.6736 43.9436C75.4925 43.9921 75.3004 44.0299 75.1139 44.0299C74.9547 44.0299 74.812 43.976 74.6749 43.976C74.2633 43.976 74.4169 44.0137 73.9944 44.0137C73.9395 44.1378 73.8737 44.2079 73.7585 44.2565C73.6871 44.2835 73.6048 44.2889 73.528 44.305C73.4512 44.3212 73.3689 44.332 73.2865 44.3428C73.2372 44.3482 73.1439 44.3644 73.0945 44.3644C72.9902 44.3644 72.8421 44.2996 72.8091 44.2835C72.7213 44.2241 72.639 44.1594 72.5293 44.0785C72.4964 44.0569 72.4689 44.0299 72.436 44.0029C72.3208 44.0083 72.4195 44.0137 72.222 44.0137C72.1013 44.0137 71.9805 44.0083 71.8598 43.9975C71.7391 43.9867 71.58 43.976 71.4702 43.9328C71.3495 43.8842 71.2288 43.7602 71.2288 43.7116C71.2288 43.6145 71.2342 43.5821 71.2946 43.5336C71.3659 43.4796 71.5251 43.4365 71.6239 43.4257C71.794 43.4041 72.0135 43.3825 72.1891 43.3717C72.1671 43.2477 72.1671 43.1182 72.1671 42.9941C72.1671 42.3575 72.1452 41.7371 72.1452 41.1005C72.1452 40.8524 72.1836 40.232 72.2 39.3148C72.211 38.6567 72.2275 38.0039 72.2275 37.3457C72.2275 36.9843 72.233 36.5419 72.2549 36.0995C72.2659 35.846 72.2933 35.5978 72.3043 35.3443C72.2878 35.3443 72.2604 35.3443 72.222 35.3443C72.1013 35.3443 71.9805 35.3389 71.8598 35.3281C71.7391 35.3173 71.58 35.3065 71.4702 35.2633C71.3495 35.2202 71.2288 35.0961 71.2288 35.0422C71.2288 35.0098 71.2342 34.9127 71.2946 34.8695C71.3659 34.8156 71.5251 34.7724 71.6239 34.7562C71.8927 34.7185 72.1781 34.6915 72.3647 34.6861C72.3866 34.6429 72.4195 34.5998 72.4525 34.5728C72.5018 34.5243 72.6171 34.4703 72.6829 34.4433C72.7597 34.4056 72.8421 34.384 72.9244 34.3678C72.9957 34.357 73.067 34.3516 73.1439 34.3516C73.2426 34.3516 73.3414 34.3624 73.4347 34.384C73.6103 34.4271 73.7365 34.5243 73.8298 34.6591C73.9231 34.6537 74.0164 34.6537 74.1151 34.6537C74.4005 34.6537 74.6584 34.7347 75.1193 34.7347C75.3827 34.7347 75.6132 34.8695 75.8711 34.8695C75.9973 34.8695 76.1455 34.8803 76.2552 34.9397C76.3705 35.0044 76.4638 35.1231 76.5625 35.2094C76.6503 35.2849 76.7601 35.3443 76.8204 35.4414C76.8753 35.5277 76.8863 35.6302 76.9521 35.7111C77.0344 35.8136 77.1168 35.8837 77.3253 36.0078C77.457 36.0887 77.4021 36.2884 77.4789 36.4232C77.6381 36.7038 77.9179 37.0167 78.0002 37.2972C78.0716 37.5669 78.099 37.8043 78.099 38.0794C78.099 38.2629 78.088 38.4463 78.088 38.6351C78.088 38.77 78.099 38.8886 78.1264 39.0181C78.1374 39.0613 78.1374 39.099 78.1374 39.1314C78.1594 39.2717 78.1155 39.3742 78.1155 39.5252ZM76.2991 39.5414C76.2991 39.385 76.2827 39.0829 76.2497 38.7322C76.2113 38.333 76.1674 38.0363 76.1619 37.9553C76.0961 37.3835 76.0083 36.898 75.8492 36.3477C75.8053 36.202 75.8162 35.9323 75.3169 35.5007C75.2126 35.4144 74.7627 35.3065 74.4663 35.3065C74.2907 35.3065 74.1974 35.3443 74.1645 35.4414C74.1371 35.5223 74.1426 35.8298 74.1316 36.2236C74.1151 37.076 74.1151 38.3222 74.0987 38.511C74.0877 38.6189 74.0822 38.7268 74.0822 38.8347C74.0822 39.0343 74.0987 39.2393 74.1042 39.4389C74.1151 39.7087 74.1206 39.9784 74.1261 40.2481C74.1316 40.4747 74.1316 40.7067 74.1316 40.9333C74.1316 41.2408 74.1645 41.9043 74.1481 42.2172C74.1426 42.3305 74.1206 42.4546 74.1206 42.5679C74.1206 42.638 74.0712 43.075 74.0712 43.307C74.0712 43.3825 74.0822 43.4311 74.1755 43.4311C74.2852 43.4311 74.3566 43.4311 74.4005 43.4311C74.5432 43.4365 74.4883 43.4419 74.7133 43.4419C74.7901 43.4419 75.0425 43.2746 75.1193 43.2584C75.1632 43.2477 75.2949 43.1883 75.3388 43.1613C75.4431 43.102 75.5035 42.9671 75.5583 42.8646C75.6406 42.719 75.7229 42.5679 75.7943 42.4169C75.9205 42.1417 76.0138 42.1471 76.0851 41.4997C76.1235 41.1383 76.2223 40.8038 76.2552 40.4801C76.2882 40.1456 76.2991 39.8327 76.2991 39.5414Z" fill="white"/>
<path d="M84.2723 43.2908C84.3217 43.3232 84.3492 43.3717 84.3492 43.4365C84.3492 43.566 84.2504 43.6846 84.1461 43.7494C84.0364 43.8249 83.8992 43.8357 83.773 43.8573C83.4876 43.9058 83.1968 43.9112 82.906 43.9598C82.7633 43.9814 82.6261 44.0083 82.4834 44.0299C82.3737 44.0407 82.0829 44.0461 81.8853 44.0515C81.814 44.0623 81.7591 44.0785 81.7097 44.0785H81.5396C81.4902 44.1594 81.4189 44.2079 81.3201 44.2457C81.2433 44.2727 81.15 44.2781 81.0677 44.2943C80.9799 44.3104 80.8866 44.3158 80.7988 44.332C80.7439 44.3374 80.6397 44.3536 80.5848 44.3536C80.4696 44.3536 80.3049 44.2889 80.272 44.2727C80.1787 44.2187 80.0854 44.154 79.9702 44.0731C79.8769 44.0731 79.8166 44.0731 79.7946 44.0731C79.5861 44.0731 79.7397 44.0893 79.5257 44.0893C79.4105 44.0893 79.2953 44.0839 79.18 44.0731C79.0648 44.0623 78.9111 44.0515 78.8069 44.0083C78.6917 43.9598 78.5764 43.7871 78.5764 43.7332C78.5764 43.7008 78.5819 43.6631 78.6423 43.6199C78.7081 43.5606 78.8618 43.5228 78.9605 43.5066C79.1691 43.4796 79.405 43.4527 79.6135 43.4419C79.6026 43.2099 79.6135 42.8862 79.6135 42.5517C79.6135 42.0446 79.5971 41.5159 79.5916 41.3703C79.5916 41.2947 79.5861 40.847 79.5696 40.5503C79.5532 40.2589 79.5477 39.9676 79.5477 39.6763C79.5477 39.563 79.5367 39.4443 79.5367 39.331C79.5367 39.1584 79.5751 38.9858 79.5751 38.8131C79.5751 38.6891 79.5642 38.5596 79.5642 38.4355C79.5642 38.2737 79.5806 38.1172 79.6026 37.9608C79.641 37.6802 79.6849 37.3997 79.6904 37.1192C79.6958 36.8063 79.6904 36.4934 79.6904 36.1805C79.6904 35.9323 79.6958 35.6895 79.7233 35.4414C79.6245 35.4468 79.7013 35.4522 79.5257 35.4522C79.4105 35.4522 79.2898 35.4468 79.18 35.436C79.0648 35.4252 78.9111 35.4144 78.8069 35.3713C78.6917 35.3227 78.5764 35.1501 78.5764 35.0961C78.5764 35.0638 78.5819 35.0314 78.6368 34.9828C78.7026 34.9235 78.8618 34.8857 78.955 34.8695C79.2075 34.8318 79.6245 34.8048 79.8111 34.7994L79.8166 34.7832C79.833 34.7293 79.8934 34.6969 79.9373 34.6699C80.047 34.5998 80.1787 34.5728 80.3049 34.5405C80.3982 34.5135 80.508 34.4919 80.6068 34.4919C80.6452 34.4919 80.6836 34.4973 80.7165 34.5027C80.7769 34.5135 80.8263 34.5459 80.8811 34.5674C80.947 34.5944 81.0128 34.616 81.0787 34.6322C81.2104 34.6699 81.3366 34.7293 81.4683 34.7616C81.5122 34.7724 81.5561 34.7778 81.6055 34.7778C81.6933 34.7778 81.7865 34.767 81.8689 34.7616C82.0115 34.7562 82.478 34.7616 82.6206 34.767C82.7578 34.7724 82.8895 34.7778 83.0267 34.7886C83.1803 34.7994 83.334 34.8156 83.4876 34.8426C83.5809 34.8587 83.6742 34.8749 83.7675 34.8965C83.8224 34.8372 83.8827 34.7994 83.9102 34.7994C83.9431 34.7994 83.976 34.8048 84.0254 34.8641C84.0858 34.9289 84.1571 35.0638 84.1681 35.1555C84.2065 35.5709 84.19 35.382 84.212 35.641C84.2394 35.9647 84.2504 35.9593 84.2504 36.31C84.2504 36.4934 84.2394 36.844 84.0199 36.844C83.8937 36.844 83.8608 36.8225 83.773 36.7469C83.7017 36.6876 83.6687 36.5959 83.6468 36.5096C83.6138 36.3747 83.6029 36.2938 83.6029 36.2074C83.6029 36.1157 83.6138 36.0294 83.6138 35.8892C83.6138 35.7543 83.6248 35.614 83.6138 35.4792C83.4876 35.5061 83.3614 35.5169 83.2352 35.5169C83.0706 35.5169 82.9115 35.5223 82.7523 35.5439C82.6042 35.5655 82.456 35.5817 81.9951 35.5978C81.9237 35.5978 81.8579 35.614 81.792 35.6248C81.7372 35.6356 81.6713 35.641 81.6384 35.6949C81.6055 35.7381 81.6109 35.8028 81.6109 35.8568C81.6109 35.9323 81.6219 36.0024 81.6329 36.0726C81.6494 36.2128 81.6494 36.3585 81.6494 36.4988C81.6548 36.5959 81.6549 36.6984 81.6549 36.8009C81.6549 36.9843 81.6494 37.1623 81.6439 37.3404C81.6384 37.4806 81.6164 37.6155 81.6109 37.7558C81.6109 37.896 81.611 38.0417 81.6055 38.1819C81.6055 38.2521 81.6 38.3222 81.6 38.3923C81.6 38.4409 81.578 38.5164 81.6055 38.5596C81.6274 38.6027 81.6878 38.6027 81.7317 38.6081C81.803 38.6135 81.8743 38.6243 81.9457 38.6297C82.3956 38.6405 82.5273 38.6405 82.659 38.6621C82.7853 38.6837 82.9115 38.6945 83.0377 38.6998C83.0377 38.6729 83.0377 38.6459 83.0377 38.6189C83.0377 38.5056 83.0432 38.3923 83.0541 38.2791C83.0651 38.1658 83.0761 38.0147 83.12 37.9122C83.1694 37.7989 83.2956 37.6856 83.3505 37.6856C83.3834 37.6856 83.4163 37.691 83.4657 37.7504C83.5261 37.8151 83.5645 37.9662 83.5809 38.0633C83.6193 38.3222 83.6303 38.5866 83.6523 38.8455C83.6797 39.1692 83.6907 39.3202 83.6907 39.6709C83.6907 39.8543 83.6797 40.205 83.4657 40.205C83.3395 40.205 83.3066 40.1834 83.2188 40.1079C83.1474 40.0486 83.109 39.9568 83.0925 39.8705C83.0596 39.7357 83.0486 39.6493 83.0486 39.5684C83.0486 39.4875 83.0541 39.412 83.0596 39.2987C82.7688 39.3149 82.3463 39.3203 81.792 39.3149C81.6658 39.3149 81.6 39.385 81.5945 39.5091C81.589 39.6493 81.589 39.7842 81.5725 39.9245C81.567 39.9784 81.567 40.027 81.567 40.0809C81.567 40.1618 81.5725 40.2428 81.5835 40.3291C81.5945 40.4478 81.6164 40.5611 81.6164 40.6797C81.6164 40.7984 81.6055 40.9063 81.6055 41.0196C81.6055 41.2084 81.6439 41.3865 81.6494 41.5699C81.6548 41.8558 81.6439 42.1363 81.6603 42.4169C81.6658 42.5571 81.6823 42.6974 81.7207 42.8323C81.7481 42.9402 81.7152 43.2045 81.8085 43.2692C81.8469 43.2962 81.9512 43.3016 82.1597 43.3016C82.3463 43.3016 82.5822 43.2854 82.6975 43.2854C82.8731 43.2854 83.0541 43.3232 83.2352 43.3232C83.4273 43.3232 83.5425 43.2692 83.7126 43.2477C83.7181 43.102 83.7236 42.9617 83.7236 42.8215C83.7236 42.6812 83.7126 42.5949 83.7126 42.5086C83.7126 42.4277 83.7236 42.3359 83.7565 42.2065C83.7785 42.1202 83.8169 42.023 83.8827 41.9691C83.976 41.8936 84.0035 41.872 84.1297 41.872C84.3492 41.872 84.3547 42.2227 84.3547 42.4061C84.3547 42.7567 84.3492 42.9078 84.3217 43.2315C84.2778 43.2531 84.2778 43.2746 84.2723 43.2908Z" fill="white"/>
<path d="M93.5845 43.733C93.6723 43.7924 93.804 43.8625 93.7985 43.9596C93.7985 43.992 93.7875 44.019 93.7601 44.0513C93.6832 44.1484 93.5296 44.1808 93.4089 44.1808C93.0357 44.1808 92.5144 43.9219 92.2565 43.6683C91.9986 43.4094 91.834 43.118 91.6584 42.8051C91.5651 42.6379 91.4828 42.4707 91.406 42.3034C91.3346 42.147 91.2743 41.9905 91.2304 41.8179C91.1865 41.6345 91.1316 41.4618 91.0767 41.2838C91.0164 41.1004 90.9505 40.917 90.8737 40.7389C90.8188 40.6041 90.753 40.4206 90.6926 40.248C90.6213 40.07 90.5499 39.9891 90.4182 39.8973C90.3249 39.8326 90.2152 39.8272 90.1439 39.8164C90.0835 39.8056 89.9792 39.811 89.886 39.811C89.853 39.811 89.8366 39.8488 89.8366 39.8866C89.8366 39.9944 89.8585 40.1833 89.8585 40.2264C89.8585 40.4152 89.8201 40.6041 89.8201 40.7929C89.8201 41.0896 89.8969 41.2406 89.8969 41.5374C89.8969 41.8988 89.8366 42.2603 89.7982 42.6217C89.7872 42.7404 89.7652 42.8699 89.7652 42.9886C89.7652 43.0587 89.7762 43.1342 89.7872 43.2151C90.0122 43.2097 90.1933 43.2098 90.3085 43.2098C90.5005 43.2098 90.8737 43.2205 90.8737 43.4903C90.8737 43.6198 90.8517 43.6467 90.7749 43.7384C90.7146 43.8086 90.6158 43.8409 90.5225 43.8625C90.3743 43.9003 90.2811 43.9057 90.1878 43.9057C90.1219 43.9057 89.875 43.9057 89.5951 43.9003C89.4415 44.0028 89.2329 44.0783 89.0683 44.0945C88.9696 44.1053 88.8818 44.1215 88.794 44.1215C88.7391 44.1215 88.6842 44.1161 88.6184 44.0945C88.4812 44.0513 88.3495 43.9866 88.2342 43.8949C88.0916 43.9003 87.9434 43.9057 87.8172 43.9057C87.6965 43.9057 87.5757 43.9003 87.455 43.8895C87.3343 43.8787 87.1752 43.8086 87.0654 43.7654C86.9447 43.7169 86.824 43.5928 86.824 43.5388C86.824 43.5065 86.8295 43.4741 86.8898 43.4255C86.9612 43.3662 87.1203 43.3284 87.2191 43.3122C87.4221 43.2853 87.7184 43.2583 87.905 43.2529C87.8885 43.1612 87.8776 43.0749 87.8721 42.9886C87.8611 42.8807 87.8337 42.147 87.8337 41.8934C87.8337 41.5913 87.8556 41.2676 87.8556 40.9763C87.8556 40.6364 87.8282 40.302 87.8282 39.9621C87.8282 39.5844 87.8391 39.2068 87.8501 38.8292C87.8611 38.43 87.8776 38.0307 87.894 37.6315C87.9105 37.2485 87.9215 37.1676 87.9215 36.7845C87.9215 36.6119 87.916 36.4393 87.916 36.2666C87.916 36.0832 87.9544 35.9106 87.9544 35.7326C87.9544 35.6408 87.9324 35.5168 87.9269 35.3927C87.9105 35.3927 87.8776 35.3927 87.8227 35.3927C87.702 35.3927 87.5812 35.3873 87.4605 35.3765C87.3398 35.3657 87.1807 35.3549 87.0709 35.3118C86.9502 35.2632 86.8295 35.1229 86.8295 35.069C86.8295 35.0366 86.8404 34.9989 86.8953 34.9557C86.9667 34.8964 87.1258 34.8586 87.2246 34.8424C87.4989 34.8046 87.7623 34.7723 87.9654 34.7723C87.9763 34.7399 87.9983 34.7129 88.0257 34.6968C88.0861 34.659 88.1739 34.6266 88.2781 34.5835C88.3495 34.5511 88.4428 34.5079 88.5141 34.4864C88.558 34.4756 88.6677 34.4702 88.7555 34.4702C88.8708 34.4702 89.0574 34.5079 89.2055 34.5565C89.3592 34.6104 89.4799 34.6482 89.5402 34.7129C89.7323 34.7075 89.8475 34.6968 90.0012 34.6968C90.1768 34.6968 90.3414 34.7075 90.5719 34.7075C90.6268 34.7075 90.7475 34.6914 90.8572 34.6914C91.0164 34.6914 91.2359 34.7777 91.5432 34.8586C91.6803 34.891 91.7901 34.9665 91.8998 35.0366C91.9712 35.0852 92.1358 35.1769 92.2949 35.2794C92.4541 35.3819 92.6077 35.4952 92.6406 35.5707C92.7065 35.7218 92.8931 35.8566 92.9589 36.0023C93.0412 36.1857 93.0687 36.3853 93.0796 36.5849C93.0906 36.736 93.14 36.8439 93.14 36.9032C93.14 36.941 93.14 36.9788 93.14 37.0165C93.14 37.0759 93.1839 37.1676 93.1839 37.2485C93.1839 37.3402 93.1619 37.4427 93.1455 37.529C93.1235 37.6747 93.1235 37.7502 93.0906 37.9336C93.0577 38.1063 93.0028 38.2681 92.915 38.3868C92.8711 38.4461 92.7998 38.4731 92.7668 38.5432C92.7394 38.5972 92.7394 38.6511 92.701 38.7051C92.6406 38.7914 92.5144 38.9479 92.4321 39.0018C92.3718 39.0396 92.3114 39.0396 92.2565 39.0935C92.1962 39.1529 92.1523 39.2176 92.0864 39.2715C91.9821 39.3579 91.8889 39.4819 91.7681 39.5467C91.6694 39.6006 91.5706 39.6006 91.5816 39.7463C91.5871 39.8704 91.8998 40.0376 91.9492 40.1509C92.0535 40.3667 92.1962 40.5393 92.2785 40.7605C92.3498 40.9493 92.4157 41.1381 92.476 41.3324C92.5583 41.5967 92.6351 41.861 92.701 42.1362C92.7668 42.4113 92.937 42.6649 93.0302 42.94C93.0851 43.0965 93.151 43.2421 93.2388 43.377C93.3321 43.5226 93.4418 43.6413 93.5845 43.733ZM91.4828 36.4609C91.4828 36.4123 91.4828 36.3314 91.4773 36.2451C91.4663 36.0724 91.3346 35.862 91.1755 35.6732C91.1151 35.5977 91.0438 35.5383 90.9779 35.4898C90.8737 35.4197 90.7639 35.3765 90.6487 35.3441C90.4292 35.2848 90.1987 35.2902 90.0341 35.2902L89.6555 35.301C89.65 35.4898 89.6445 35.7595 89.6555 36.094C89.6665 36.531 89.7158 37.0381 89.7268 37.4805C89.7433 38.0631 89.7543 38.4947 89.7543 38.581C89.7543 38.7375 89.7982 38.8939 89.7762 39.0504C89.7707 39.0773 89.7707 39.1043 89.7707 39.1205C89.7707 39.2176 89.8146 39.2392 89.8914 39.2392C89.9408 39.2392 90.0012 39.2338 90.078 39.2338C90.1658 39.2338 90.2262 39.2392 90.314 39.2392C90.5005 39.2392 90.8024 39.169 90.9395 39.0126C91.0493 38.8885 91.1151 38.8184 91.17 38.6457C91.2194 38.5001 91.2578 38.349 91.2962 38.2142C91.3511 38.0253 91.3895 37.9175 91.4169 37.734C91.4444 37.5398 91.4554 37.4913 91.4554 37.297C91.4554 37.0381 91.4663 37.1244 91.4773 36.8924C91.4773 36.7036 91.4828 36.6659 91.4828 36.4609Z" fill="white"/>
<path d="M97.5793 43.4474C97.7768 43.4474 98.1664 43.4582 98.139 43.6902C98.128 43.7981 98.1116 43.8304 98.0402 43.9114C97.9799 43.9815 97.8811 44.0139 97.7878 44.0354C97.6451 44.0678 97.5573 44.0786 97.4695 44.0786C97.4256 44.0786 97.1458 44.0678 96.844 44.0732C96.4763 44.0786 96.0812 44.1002 96.0044 44.1002C95.7849 44.1002 95.4227 44.084 95.1978 44.084C95.077 44.084 94.9563 44.0786 94.8356 44.0678C94.7149 44.057 94.5557 44.0462 94.446 44.0031C94.3253 43.9545 94.2045 43.8304 94.2045 43.7765C94.2045 43.7441 94.21 43.7117 94.2704 43.6632C94.3417 43.6039 94.5009 43.5661 94.5996 43.5499C94.874 43.5121 95.1923 43.4798 95.302 43.4798C95.3404 43.4798 95.3898 43.4798 95.4557 43.4798C95.3514 43.3881 95.2746 43.2748 95.2746 43.1453C95.2746 43.0644 95.2636 43.005 95.2472 42.9295C95.2362 42.8809 95.2307 42.8324 95.2307 42.7838C95.2307 42.7407 95.2362 42.6975 95.2362 42.649C95.2417 42.5195 95.2472 42.39 95.2472 42.2551C95.2472 42.2012 95.2472 42.1473 95.2472 42.0933C95.2362 41.3704 95.2691 40.6475 95.2526 39.9192C95.2417 39.5362 95.2526 39.1531 95.2636 38.7701C95.2746 38.441 95.2856 38.1066 95.2856 37.7775C95.2856 37.594 95.2856 37.416 95.2856 37.2326V36.5475C95.2856 36.2292 95.2746 35.9055 95.2856 35.5818C95.2856 35.5332 95.291 35.4901 95.2965 35.4415C95.2636 35.4415 95.2307 35.4415 95.1978 35.4415C95.077 35.4415 94.9563 35.4361 94.8356 35.4253C94.7149 35.4145 94.5557 35.4038 94.446 35.3606C94.3253 35.312 94.2045 35.188 94.2045 35.134C94.2045 35.1016 94.1881 35.0585 94.2375 35.0045C94.2923 34.9452 94.4844 34.9236 94.5832 34.9074C94.8411 34.8697 95.1868 34.8427 95.3185 34.8373C95.3185 34.8103 95.313 34.7834 95.313 34.7564C95.313 34.6862 95.324 34.6269 95.3624 34.5837C95.4118 34.5352 95.516 34.4974 95.5764 34.4705C95.6532 34.4327 95.7355 34.4111 95.8178 34.3949C95.8892 34.3841 95.9605 34.3733 96.0373 34.3733C96.1361 34.3733 96.2349 34.3841 96.3282 34.4057C96.5641 34.4651 96.7562 34.6107 96.8659 34.8103C97.1787 34.8049 97.4476 34.7995 97.5738 34.7995C97.7713 34.7995 98.161 34.8103 98.139 35.0423C98.128 35.1502 98.1116 35.1826 98.0402 35.2689C97.9799 35.339 97.8811 35.3714 97.7878 35.393C97.6451 35.4253 97.5573 35.4361 97.4695 35.4361C97.4366 35.4361 97.2555 35.4361 97.0251 35.4361L97.0306 35.4631C97.058 35.6411 97.0854 35.8138 97.1129 35.9972C97.1348 36.1752 97.1513 36.3478 97.1513 36.5259C97.1513 36.6985 97.1403 36.8657 97.1403 37.0384C97.1403 37.1247 97.1238 37.2056 97.1238 37.2973C97.1238 37.3675 97.1348 37.4376 97.1513 37.5131C97.2061 37.8692 97.2007 38.236 97.2171 38.5975C97.2336 38.9967 97.2391 39.3959 97.2446 39.8005C97.2501 40.1296 97.2555 40.4533 97.2665 40.777C97.2775 41.1438 97.3378 41.4999 97.3488 41.8667C97.3543 42.0394 97.3598 42.2174 97.3653 42.39C97.3708 42.5734 97.3708 42.7623 97.3598 42.9457C97.3488 43.1075 97.3433 43.291 97.283 43.4474C97.4092 43.4474 97.5134 43.4474 97.5793 43.4474Z" fill="white"/>
<path d="M104.899 40.0593C104.899 40.1996 104.74 40.3075 104.62 40.3614C104.449 40.4423 104.192 40.4801 104.005 40.5017C103.84 40.5233 103.736 40.534 103.736 40.6851C103.736 40.7984 103.764 41.0681 103.764 41.1652C103.764 41.2192 103.764 41.586 103.764 41.6346C103.769 41.7317 103.769 41.845 103.775 41.9583C103.78 42.3197 103.786 42.7621 103.796 42.9078C103.818 43.2099 103.835 43.3663 103.824 43.6684C103.824 43.8249 103.829 44.2672 103.572 44.2672C103.462 44.2672 103.412 44.2403 103.33 44.1701C103.259 44.1108 103.226 44.0191 103.204 43.9328C103.176 43.8249 103.171 43.7493 103.171 43.6792C103.171 43.5605 103.193 43.4688 103.193 43.2854V43.2476C103.1 43.5443 102.908 43.7979 102.644 43.9975C102.271 44.2834 101.991 44.4129 101.519 44.4129C101.234 44.4129 100.949 44.3644 100.685 44.278C100.372 44.1755 100.12 44.0083 99.9059 43.7979C99.5931 43.4958 99.3627 43.1074 99.1596 42.7082C99.0005 42.4006 98.9127 42.0877 98.8523 41.7641C98.8139 41.5429 98.781 41.3163 98.7481 41.0843C98.7151 40.8577 98.7261 40.7013 98.7261 40.5017C98.7261 39.714 98.9346 38.921 99.1377 38.0524C99.231 37.664 99.3242 37.2594 99.4505 36.871C99.5876 36.4556 99.7578 36.0564 100.01 35.7003C100.23 35.3928 100.482 35.0583 100.773 34.8102C100.91 34.6969 101.053 34.6213 101.223 34.5728C101.437 34.5134 101.623 34.4002 101.854 34.3948C101.892 34.3948 101.925 34.3894 101.958 34.3894C102.062 34.3894 102.123 34.4002 102.276 34.4217C102.463 34.4487 102.644 34.5027 102.787 34.589C102.913 34.6645 103.012 34.7778 103.089 34.9019C103.094 34.8102 103.111 34.7077 103.143 34.6375C103.171 34.5836 103.182 34.5512 103.242 34.4919C103.27 34.4649 103.336 34.4163 103.379 34.4163C103.429 34.4163 103.478 34.4703 103.495 34.4973C103.55 34.5782 103.593 34.7023 103.604 34.794C103.621 34.9073 103.626 35.1608 103.632 35.4413C103.637 35.8028 103.643 36.1966 103.654 36.3423C103.676 36.6444 103.692 36.8008 103.681 37.103C103.676 37.2594 103.681 37.7018 103.429 37.7018C103.319 37.7018 103.27 37.6748 103.187 37.6047C103.116 37.5453 103.078 37.4536 103.061 37.3619C103.045 37.2756 103.039 37.2001 103.039 37.1191C103.039 37.0058 103.05 36.8872 103.05 36.7199C103.039 36.6228 103.028 36.5257 103.017 36.4286C102.995 36.2128 102.957 35.997 102.924 35.792C102.891 35.5978 102.809 35.4036 102.688 35.2256C102.606 35.1015 102.403 35.0475 102.255 35.0475C102.046 35.0475 101.92 35.15 101.816 35.3119C101.717 35.4737 101.569 35.6086 101.508 35.7866C101.442 35.97 101.404 36.1804 101.388 36.3747C101.371 36.5797 101.333 36.7415 101.278 36.9357C101.212 37.1461 101.195 37.3781 101.157 37.5939C101.119 37.7935 101.097 37.9877 101.08 38.1873C101.064 38.3707 101.003 38.5488 100.987 38.7322C100.965 38.9426 100.938 39.153 100.91 39.3634C100.883 39.563 100.861 39.7626 100.839 39.9676C100.822 40.1456 100.795 40.3236 100.795 40.5017C100.795 40.7552 100.828 41.0088 100.839 41.2623C100.855 41.6076 100.965 41.9529 101.031 42.2874C101.058 42.4222 101.086 42.5571 101.124 42.6866C101.174 42.8592 101.239 43.0264 101.338 43.1775C101.481 43.3933 101.722 43.6414 102.002 43.6414C102.238 43.6414 102.414 43.458 102.54 43.28C102.732 42.9995 102.836 42.692 102.902 42.3683C102.957 42.0877 102.979 41.7964 103.001 41.5105C103.012 41.3163 103.023 41.0358 103.023 40.8415C103.023 40.8038 103.023 40.766 103.023 40.7337C103.023 40.5826 103.017 40.534 102.798 40.534C102.622 40.534 102.43 40.561 102.244 40.561C102.079 40.561 101.92 40.5394 101.777 40.4693C101.717 40.4369 101.684 40.4046 101.678 40.3614C101.678 40.329 101.695 40.2913 101.733 40.2535C101.821 40.1618 101.909 40.1456 102.008 40.0971C102.2 40 102.425 39.9784 102.655 39.9406C102.864 39.9082 103.072 39.8921 103.27 39.8759C103.429 39.8651 103.588 39.8597 103.753 39.8597C103.994 39.8597 104.373 39.8381 104.526 39.8381C104.696 39.8273 104.899 39.8813 104.899 40.0593Z" fill="white"/>
<path d="M112 43.4473C112.192 43.4473 112.565 43.458 112.565 43.6738C112.565 43.7979 112.543 43.8303 112.467 43.9166C112.406 43.9867 112.307 44.0245 112.214 44.0407C112.066 44.0731 111.973 44.0838 111.885 44.0838C111.709 44.0838 110.37 44.0731 110.222 44.0731C110.008 44.0731 110.167 44.0838 109.942 44.0838C109.822 44.0838 109.701 44.0785 109.58 44.0677C109.459 44.0569 109.3 44.0461 109.191 44.0029C109.07 43.9544 108.949 43.8303 108.949 43.7763C108.949 43.744 108.955 43.7062 109.015 43.6631C109.086 43.6037 109.245 43.5659 109.344 43.5498C109.591 43.5174 109.811 43.4904 109.937 43.4796C109.827 43.3933 109.761 43.3124 109.745 43.129C109.712 42.7837 109.706 42.4384 109.706 42.0932C109.706 41.7641 109.712 41.435 109.712 41.1059C109.712 40.8901 109.712 40.6797 109.701 40.4693C109.69 40.2481 109.673 40.027 109.684 39.8058C109.684 39.7302 109.712 39.6116 109.712 39.5144C109.712 39.4443 109.701 39.385 109.663 39.358C109.641 39.3418 109.591 39.3364 109.536 39.3364C109.372 39.3364 109.119 39.3904 109.031 39.3958C108.894 39.4066 108.763 39.4227 108.307 39.4227C108.088 39.4227 107.978 39.385 107.923 39.385C107.885 39.385 107.863 39.3904 107.863 39.4605C107.863 39.563 107.863 39.6547 107.863 39.741C107.863 39.8597 107.863 39.9676 107.852 40.0917C107.841 40.1942 107.841 40.2967 107.841 40.4046C107.841 40.5664 107.852 40.7337 107.857 40.9009C107.857 40.9225 107.857 40.9441 107.857 40.9656C107.857 41.1221 107.83 41.2732 107.83 41.4296C107.83 41.6022 107.819 41.7749 107.813 41.9475C107.802 42.1147 107.791 42.282 107.791 42.4492C107.791 42.6812 107.747 42.87 107.747 43.1074C107.747 43.2207 107.769 43.334 107.786 43.4473C107.983 43.4527 108.247 43.4904 108.247 43.6684C108.247 43.7925 108.225 43.8249 108.148 43.9112C108.088 43.9813 107.989 44.0191 107.896 44.0353C107.753 44.0677 107.665 44.0785 107.577 44.0785C107.572 44.0838 107.566 44.0838 107.561 44.0892C107.489 44.127 107.462 44.1162 107.396 44.1702C107.336 44.2187 107.358 44.2673 107.281 44.3104C107.237 44.332 107.177 44.3428 107.111 44.3428C106.891 44.3428 106.754 44.2835 106.644 44.1971C106.595 44.1594 106.557 44.1216 106.513 44.0731C106.299 44.0731 106.129 44.0731 106.079 44.0731C105.86 44.0731 106.019 44.0892 105.799 44.0892C105.679 44.0892 105.558 44.0838 105.437 44.0731C105.316 44.0623 105.157 44.0515 105.048 44.0083C104.927 43.9598 104.806 43.8357 104.806 43.7817C104.806 43.7494 104.817 43.717 104.872 43.6684C104.943 43.6091 105.102 43.5713 105.201 43.5552C105.399 43.5282 105.695 43.5012 105.887 43.4958C105.876 43.458 105.871 43.4149 105.871 43.3717C105.871 43.2908 105.887 43.2099 105.887 43.1236C105.893 42.9563 105.898 42.7945 105.898 42.6272C105.898 42.4438 105.898 42.2604 105.898 42.077V41.3757C105.898 41.0574 105.898 40.7391 105.904 40.4208C105.909 40.205 105.909 39.9946 105.904 39.7788C105.904 39.7248 105.904 39.6655 105.904 39.6062C105.904 39.5522 105.893 39.4389 105.893 39.3904C105.893 39.3256 105.882 39.2987 105.799 39.2879C105.75 39.2825 105.558 39.2609 105.426 39.2393C105.245 39.2069 105.064 39.153 105.064 39.0667C105.064 39.0343 105.091 38.9912 105.152 38.948C105.229 38.8887 105.311 38.8617 105.393 38.8401C105.481 38.8185 105.574 38.8131 105.668 38.7969C105.81 38.77 105.81 38.7808 105.865 38.6998C105.882 38.6783 105.887 38.6351 105.887 38.5811C105.887 38.2305 105.882 37.8636 105.882 37.5022C105.882 36.8764 105.898 36.2506 105.969 35.6356C105.98 35.5439 105.986 35.436 105.997 35.3227C105.898 35.3281 105.942 35.3281 105.761 35.3281H105.673C105.596 35.3281 105.525 35.3281 105.437 35.3173C105.316 35.3065 105.157 35.2957 105.048 35.2526C104.927 35.204 104.806 35.0745 104.806 35.026C104.806 34.9936 104.823 34.9504 104.872 34.8965C104.927 34.8372 105.086 34.7994 105.185 34.7832C105.459 34.7454 105.854 34.7293 105.964 34.7293H106.112C106.2 34.5243 106.359 34.384 106.672 34.384C106.908 34.384 107.116 34.5027 107.27 34.7023C107.435 34.6969 107.577 34.6969 107.687 34.6969C107.879 34.6969 108.313 34.7077 108.313 34.9235C108.313 35.0476 108.225 35.0799 108.148 35.1662C108.088 35.2364 107.989 35.2687 107.896 35.2903C107.753 35.3227 107.665 35.3335 107.577 35.3335H107.468C107.473 35.3551 107.479 35.382 107.489 35.4036C107.577 35.6464 107.605 35.8837 107.632 36.1427C107.66 36.3801 107.671 36.6228 107.698 36.8602C107.725 37.0814 107.764 37.3026 107.786 37.5238C107.791 37.5939 107.791 37.6748 107.791 37.7503V37.8205C107.791 37.9446 107.791 38.0686 107.819 38.1819C107.835 38.2521 107.885 38.306 107.896 38.3761C107.896 38.3869 107.901 38.3977 107.901 38.4085C107.901 38.4409 107.896 38.484 107.896 38.5164C107.896 38.6027 107.918 38.6189 108.022 38.6189C108.203 38.6189 108.861 38.5596 108.933 38.5542C109.07 38.5434 109.213 38.5488 109.35 38.5488C109.438 38.5488 109.52 38.5326 109.602 38.5326C109.701 38.5326 109.772 38.5002 109.772 38.3815C109.772 38.2575 109.745 38.0794 109.745 38.0201C109.745 37.7611 109.756 37.5022 109.772 37.2378C109.778 37.1893 109.794 36.9411 109.816 36.666C109.833 36.4232 109.849 36.1589 109.849 35.9862C109.849 35.873 109.827 35.7165 109.827 35.6356C109.827 35.5169 109.827 35.4791 109.822 35.3874C109.745 35.3874 109.668 35.382 109.591 35.3712C109.47 35.3605 109.311 35.3497 109.202 35.3065C109.081 35.2579 108.993 35.1339 108.993 35.0799C108.993 35.0476 108.999 35.0098 109.059 34.9666C109.13 34.9073 109.256 34.8695 109.355 34.8533C109.536 34.8318 109.723 34.8156 109.86 34.8102C109.887 34.7616 109.937 34.7293 109.986 34.7293C110.096 34.7293 110.25 34.6861 110.272 34.6861C110.294 34.6861 110.321 34.6807 110.348 34.6807C110.447 34.6807 110.551 34.6915 110.645 34.7185C110.7 34.7347 110.744 34.7562 110.782 34.7778C111.188 34.7616 111.605 34.7454 111.825 34.7454C112.017 34.7454 112.373 34.7562 112.373 34.9666C112.373 35.0907 112.368 35.1231 112.285 35.2094C112.225 35.2795 112.126 35.3173 112.033 35.3335C111.89 35.3658 111.803 35.3766 111.715 35.3766C111.671 35.3766 111.408 35.3766 111.117 35.3712C111.161 35.4953 111.232 35.6032 111.254 35.7327C111.303 35.9701 111.375 36.2074 111.429 36.4502C111.473 36.6498 111.457 36.844 111.512 37.0382C111.567 37.2378 111.589 37.4159 111.6 37.6209C111.611 37.7935 111.583 37.9014 111.583 38.074C111.583 38.1388 111.616 38.2898 111.616 38.3546C111.616 38.3815 111.616 38.3977 111.616 38.4139C111.616 38.4733 111.676 38.4733 111.742 38.4733C111.786 38.4733 111.836 38.4679 111.901 38.4679C112.028 38.4679 112.165 38.484 112.22 38.5865C112.231 38.6135 112.242 38.6405 112.242 38.6675C112.242 38.8023 112.093 38.9318 111.989 38.9804C111.934 39.0073 111.836 39.0289 111.77 39.0451C111.704 39.0613 111.66 39.0667 111.643 39.1206C111.638 39.1314 111.638 39.1422 111.638 39.1638C111.638 39.2123 111.649 39.2879 111.649 39.3202C111.649 39.3418 111.649 39.3688 111.649 39.3904C111.649 39.5198 111.632 39.6385 111.632 39.768C111.632 40.0863 111.638 40.41 111.665 40.7283C111.698 41.0682 111.731 41.4026 111.731 41.7425C111.731 41.9043 111.72 42.0662 111.698 42.2226C111.66 42.5032 111.643 42.7783 111.622 43.0588C111.616 43.102 111.572 43.1344 111.567 43.1829C111.561 43.2369 111.594 43.2908 111.594 43.3502C111.594 43.3825 111.583 43.4149 111.578 43.4473C111.753 43.4527 111.907 43.4473 112 43.4473Z" fill="white"/>
<path d="M119.002 36.4611C119.002 36.6283 118.991 36.952 118.777 36.952C118.651 36.952 118.618 36.9304 118.53 36.8657C118.459 36.8117 118.426 36.7254 118.404 36.6445C118.371 36.5204 118.36 36.4395 118.36 36.3639C118.36 36.283 118.371 35.7597 118.371 35.6356C118.371 35.5493 118.366 35.4576 118.366 35.3659C118.239 35.3713 118.113 35.3713 117.987 35.3767C117.861 35.3821 117.74 35.3821 117.614 35.3929C117.482 35.4037 117.356 35.4145 117.224 35.4252C117.175 35.4306 117.131 35.436 117.081 35.436C117.076 35.436 117.071 35.436 117.065 35.436C116.944 35.436 116.911 35.4738 116.911 35.5331C116.911 35.5817 116.933 35.641 116.939 35.6788C116.961 35.8083 116.977 36.0672 116.988 36.1967C116.999 36.3208 117.005 36.4503 117.005 36.5797C117.005 36.6984 116.983 36.8117 116.983 36.9304C116.983 37.0491 117.038 37.2271 117.032 37.3458C117.027 37.4753 117.016 37.5994 117.01 37.7288C116.994 37.9878 117.01 38.2575 117.021 38.5165C117.027 38.6406 117.038 38.7646 117.043 38.8887C117.043 38.9481 117.032 39.002 117.032 39.0613C117.032 39.1207 117.054 39.2879 117.054 39.3473C117.054 39.6116 117.054 39.7627 117.06 40.0216C117.065 40.286 117.087 40.5449 117.076 40.8093C117.071 40.9333 117.049 41.052 117.054 41.1761C117.054 41.3164 117.065 41.4566 117.076 41.5969C117.087 41.8666 117.092 42.131 117.098 42.4007C117.098 42.6489 117.103 42.9564 117.092 43.2046C117.087 43.2477 117.087 43.2909 117.081 43.334C117.241 43.3286 117.372 43.3286 117.444 43.3286C117.636 43.3286 118.009 43.3826 118.009 43.5984C118.009 43.7225 117.987 43.7548 117.91 43.8411C117.85 43.9113 117.751 43.9436 117.658 43.9652C117.515 43.9976 117.427 44.0084 117.339 44.0084C117.306 44.0084 117.114 44.0084 116.867 44.0084C116.824 44.0354 116.78 44.0569 116.741 44.0785C116.632 44.1486 116.533 44.1648 116.412 44.1648C116.319 44.1648 116.231 44.1756 116.138 44.1756C115.979 44.1756 115.869 44.1217 115.748 44.0515C115.715 44.0354 115.688 44.0192 115.655 43.9976C115.457 43.9976 115.282 44.0138 115.073 44.0138C114.952 44.0138 114.832 44.0084 114.711 43.9976C114.59 43.9868 114.431 43.976 114.321 43.9329C114.201 43.8843 114.08 43.7117 114.08 43.6577C114.08 43.6254 114.085 43.5876 114.146 43.5444C114.217 43.4851 114.376 43.4419 114.475 43.4311C114.722 43.3988 114.969 43.3826 115.101 43.3772V43.361C115.101 43.2207 115.057 43.0805 115.057 42.9402C115.057 42.6974 115.079 42.3953 115.079 42.1526C115.084 41.8936 115.095 41.6347 115.106 41.3703C115.122 41.0574 115.133 40.7445 115.133 40.437C115.133 40.2158 115.122 39.9946 115.139 39.7735C115.144 39.6494 115.172 39.5253 115.183 39.3958C115.194 39.2771 115.227 39.1638 115.227 39.0452C115.232 38.7808 115.216 38.5219 115.216 38.2575C115.216 37.9878 115.232 37.7126 115.232 37.4429C115.232 37.2109 115.221 36.979 115.221 36.747C115.221 36.4503 115.221 36.0295 115.232 35.7328C115.232 35.668 115.254 35.5871 115.254 35.517C115.254 35.4199 115.172 35.4145 115.139 35.4145C115.051 35.4145 114.563 35.4252 114.502 35.4252C114.255 35.4252 114.003 35.4252 113.762 35.3929C113.718 35.3875 113.679 35.3821 113.641 35.3713C113.663 35.6626 113.668 36.1697 113.668 36.4503C113.668 36.6175 113.657 36.9412 113.443 36.9412C113.317 36.9412 113.284 36.9196 113.196 36.8495C113.125 36.7955 113.087 36.7092 113.07 36.6283C113.037 36.5042 113.026 36.4233 113.026 36.3478C113.026 36.2668 113.037 35.873 113.037 35.7435C113.037 35.5709 113.026 35.3983 113.021 35.2202C112.977 35.1555 112.938 35.0854 112.938 35.0206C112.938 34.9613 112.966 34.9127 113.043 34.875C113.169 34.8156 113.218 34.7455 113.432 34.7455C113.537 34.7455 113.657 34.7401 113.756 34.7401C114.025 34.7347 114.294 34.7401 114.563 34.7077C114.689 34.6916 114.815 34.6808 114.941 34.6754C114.952 34.6754 114.963 34.6754 114.974 34.6754C115.035 34.6754 115.101 34.6808 115.166 34.6808C115.216 34.6808 115.265 34.6754 115.304 34.6646C115.397 34.6376 115.485 34.5567 115.578 34.5189C115.66 34.4866 115.748 34.4812 115.83 34.4812C115.984 34.4812 116.138 34.4812 116.286 34.5243C116.341 34.5405 116.39 34.5621 116.439 34.5891C116.494 34.6214 116.549 34.6754 116.61 34.697C116.648 34.7077 116.686 34.7131 116.73 34.7131C116.796 34.7131 116.867 34.7023 116.922 34.7023C117.065 34.7023 117.202 34.697 117.339 34.697C117.68 34.697 118.014 34.6916 118.355 34.6916C118.525 34.6916 118.706 34.7023 118.832 34.7833C118.925 34.8372 118.986 34.9451 118.986 35.053C118.986 35.107 118.969 35.1609 118.936 35.2041C118.942 35.2256 118.942 35.231 118.953 35.3659C118.997 35.6842 119.002 36.1374 119.002 36.4611Z" fill="white"/>
</g>
<defs>
<clipPath id="clip0_2188_252">
<rect width="120" height="44" fill="white" transform="translate(0 0.412842)"/>
</clipPath>
</defs>
</svg>
